<mxfile host="app.diagrams.net" modified="2022-09-12T19:51:13.980Z" agent="5.0 (Windows NT 10.0; Win64; x64) AppleWebKit/537.36 (KHTML, like Gecko) Chrome/105.0.0.0 Safari/537.36" etag="u3EAtWsSupSjEyT2zoAe" version="20.3.0" type="github">
  <diagram id="jUZQ3PMRDUv4K683J4wz" name="Page-1">
    <mxGraphModel dx="1038" dy="547" grid="0" gridSize="10" guides="1" tooltips="1" connect="1" arrows="1" fold="1" page="1" pageScale="1" pageWidth="850" pageHeight="1100" math="0" shadow="0">
      <root>
        <mxCell id="0" />
        <mxCell id="1" parent="0" />
        <mxCell id="vNxfv2Wvnp1doIPLiVu--1" value="" style="rounded=0;whiteSpace=wrap;html=1;fontSize=14;strokeColor=#000099;rotation=90;" vertex="1" parent="1">
          <mxGeometry x="272.69" y="333.81" width="491.5" height="108.88" as="geometry" />
        </mxCell>
        <mxCell id="vNxfv2Wvnp1doIPLiVu--2" value="PCF" style="fillColor=none;dashed=1;verticalAlign=top;fontStyle=1;fontColor=#5A6C86;strokeColor=#FF8000;fontSize=14;" vertex="1" parent="1">
          <mxGeometry x="30" y="244" width="400" height="380" as="geometry" />
        </mxCell>
        <mxCell id="vNxfv2Wvnp1doIPLiVu--3" value="PCF Routers&#xa;" style="fillColor=#fff2cc;strokeColor=#d6b656;dashed=1;verticalAlign=top;fontStyle=0;" vertex="1" parent="1">
          <mxGeometry x="50" y="284" width="350" height="90" as="geometry" />
        </mxCell>
        <mxCell id="vNxfv2Wvnp1doIPLiVu--4" value="&lt;font style=&quot;font-size: 10px&quot;&gt;&lt;b&gt;PCF Router&lt;/b&gt;&lt;/font&gt;" style="outlineConnect=0;fontColor=#232F3E;gradientColor=none;fillColor=#5A30B5;strokeColor=none;dashed=0;verticalLabelPosition=bottom;verticalAlign=top;align=center;html=1;fontSize=12;fontStyle=0;aspect=fixed;pointerEvents=1;shape=mxgraph.aws4.router;" vertex="1" parent="1">
          <mxGeometry x="125.13" y="308" width="35" height="35" as="geometry" />
        </mxCell>
        <mxCell id="vNxfv2Wvnp1doIPLiVu--5" value="Diego ..N " style="fillColor=none;strokeColor=#147EBA;verticalAlign=top;fontStyle=0;fontColor=#147EBA;" vertex="1" parent="1">
          <mxGeometry x="172" y="420" width="64" height="92" as="geometry" />
        </mxCell>
        <mxCell id="vNxfv2Wvnp1doIPLiVu--6" value="App 2" style="outlineConnect=0;dashed=0;verticalLabelPosition=bottom;verticalAlign=top;align=center;html=1;shape=mxgraph.aws3.android;fillColor=#EE472A;gradientColor=none;" vertex="1" parent="1">
          <mxGeometry x="182" y="452" width="33" height="36" as="geometry" />
        </mxCell>
        <mxCell id="vNxfv2Wvnp1doIPLiVu--7" value="Diego 1 " style="fillColor=none;strokeColor=#147EBA;verticalAlign=top;fontStyle=0;fontColor=#147EBA;" vertex="1" parent="1">
          <mxGeometry x="90" y="418" width="65" height="95" as="geometry" />
        </mxCell>
        <mxCell id="vNxfv2Wvnp1doIPLiVu--27" style="edgeStyle=orthogonalEdgeStyle;rounded=0;orthogonalLoop=1;jettySize=auto;html=1;fontSize=12;" edge="1" parent="1" source="vNxfv2Wvnp1doIPLiVu--8" target="vNxfv2Wvnp1doIPLiVu--24">
          <mxGeometry relative="1" as="geometry" />
        </mxCell>
        <mxCell id="vNxfv2Wvnp1doIPLiVu--8" value="&lt;font style=&quot;font-size: 12px;&quot;&gt;App 1&lt;/font&gt;" style="outlineConnect=0;dashed=0;verticalLabelPosition=bottom;verticalAlign=top;align=center;html=1;shape=mxgraph.aws3.android;fillColor=#8CC64F;gradientColor=none;" vertex="1" parent="1">
          <mxGeometry x="103" y="445" width="36.37" height="40" as="geometry" />
        </mxCell>
        <mxCell id="vNxfv2Wvnp1doIPLiVu--9" value="&lt;font style=&quot;font-size: 10px&quot;&gt;&lt;b&gt;PCF Router&lt;/b&gt;&lt;/font&gt;" style="outlineConnect=0;fontColor=#232F3E;gradientColor=none;fillColor=#5A30B5;strokeColor=none;dashed=0;verticalLabelPosition=bottom;verticalAlign=top;align=center;html=1;fontSize=12;fontStyle=0;aspect=fixed;pointerEvents=1;shape=mxgraph.aws4.router;" vertex="1" parent="1">
          <mxGeometry x="211" y="308" width="35" height="35" as="geometry" />
        </mxCell>
        <mxCell id="vNxfv2Wvnp1doIPLiVu--10" value="&lt;font style=&quot;font-size: 10px&quot;&gt;&lt;b&gt;PCF Router&lt;/b&gt;&lt;/font&gt;" style="outlineConnect=0;fontColor=#232F3E;gradientColor=none;fillColor=#5A30B5;strokeColor=none;dashed=0;verticalLabelPosition=bottom;verticalAlign=top;align=center;html=1;fontSize=12;fontStyle=0;aspect=fixed;pointerEvents=1;shape=mxgraph.aws4.router;" vertex="1" parent="1">
          <mxGeometry x="294" y="308" width="35" height="35" as="geometry" />
        </mxCell>
        <mxCell id="vNxfv2Wvnp1doIPLiVu--11" value="&lt;font style=&quot;font-size: 14px&quot;&gt;&lt;b&gt;F5 LB&lt;/b&gt;&lt;/font&gt;" style="outlineConnect=0;fontColor=#232F3E;gradientColor=none;fillColor=#5A30B5;strokeColor=none;dashed=0;verticalLabelPosition=bottom;verticalAlign=top;align=center;html=1;fontSize=12;fontStyle=0;aspect=fixed;pointerEvents=1;shape=mxgraph.aws4.application_load_balancer;" vertex="1" parent="1">
          <mxGeometry x="191" y="114" width="78" height="78" as="geometry" />
        </mxCell>
        <mxCell id="vNxfv2Wvnp1doIPLiVu--12" value="&lt;b&gt;&lt;font style=&quot;font-size: 14px&quot;&gt;NSX- Network Layer&lt;/font&gt;&lt;/b&gt;" style="text;html=1;strokeColor=none;fillColor=none;align=center;verticalAlign=middle;whiteSpace=wrap;rounded=0;" vertex="1" parent="1">
          <mxGeometry x="445" y="108" width="140" height="20" as="geometry" />
        </mxCell>
        <mxCell id="vNxfv2Wvnp1doIPLiVu--13" value="" style="shape=image;verticalLabelPosition=bottom;labelBackgroundColor=#ffffff;verticalAlign=top;aspect=fixed;imageAspect=0;image=data:image/png,iVBORw0KGgoAAAANSUhEUgAAANgAAABgCAYAAAB/ubz1AAAgAElEQVR4Aey9Z1hV17r+/X+v98N5T9vJ3tk7Zyext6gx2MXeC5aFovSOil3TTdMk9oII0kQQRIoFNWpiib3FggVr7A0UWMBi9bXmx997PWOuhcRk75PkXJ7/Fz+May7aWnOO8dzP/ZR7DP6Ppmm8HC/n4KUNvBgb+D8vJ/bFTOzLeX05r2IDLwH2ksFfRjAv0AZeAuwFTu5LFnvJYi8B9hJgLxnsBdrAS4C9wMl9yWAvGewlwF4C7CWDvUAbeAmwFzi5LxnsJYO9BNhLgL1ksBdoAy8B9gIn9yWDvWSwlwB7CbCXDPYCbeAlwF7g5L5ksJcM9hJgLwH2ksFeoA28BNgLnNyXDPaSwV4C7CXAXjLYC7SBPwYwtxtNhqYPt+bGpWk4NQ2HpmH3DJumIcP7tVzl5/K77t8wXgwDuNA0O5pbhqaG3Lfcm0XTqPMMs+fevfer34sTTXOgafIe3mfXn0eeyftc9ffteX/5uuHzapr3feTqQuZPfv78HHrnz6ppeIfcl0nTqPWMGk1Dhvdr+Zk8gzyL/L33/uX9vc9bf3/1huVdS3kuGU7c6r68X3vW2/s8cn3ub/VnEDvQh8zprw15xvr78L6fei+5B+/n6fPybJ4bfp73tfeen1299/Dsqs/7s3v1/G3958q8O3BpFpxaHU7NhEMNMw7NilOz46qfi2ef84v3q58L7709u/5+gAmwXC40iwVzjVFNilNzYXLZ1MI+cdmo0jQqPcP7+qmmUe7SeOrQjcXitGFzO+sXweJwYnfri9LQWJVhPL8o/+SB/vuHt+Oue4TmqkZzuDGbdGOUe3ukadzTNH7SNO5rGhUe4xVDdbs1XM4aNK0GzWVFc+lGIAYl4PSCQQy63phdGppTw+3ScLg0bG4BshiRGYvpMZosqlMW1a6AICAyujSMbv2zy90aj90aZdqz8UDT+P6+ixuaxkVN40enxnGrxnlN44qmcdPzDPJ7D10alS59vl1iVJ77MZudOOW1x9BcNisOiwm304ymWbHYjbg0Ky7NhtMtz+pAc7rUfGlWJ5pLt4G6mhpcTrsCoxiiU3Oq57NqLiyaG5PYhQf8RqdT2UeNQ8Nm1dAc+txYah2YTRZlRw7P57s1C27NqjtCNV/P7lXds3Ju4uj0ISDRgSJgcaj7EJvUwf7MuckcyFrImshc2OwCrFpsWhkW7S7l7guYtNuYtPuYtHLMmhGLApxNva9bc2Kzyb0K2J6B6J+9/gMAkxt0o1msWE0m5X3NbgeVTitGWVTNzflqI8fLyvnuxm2KL1xn+4Vb7L/5lDNP7Fyv1Si3Oqh1OeqN0uudxVDF63mZ4FfBJUbxGx/u13/PhuauQHMa1USL4VeLoT7R2Hr7Kbm3HpB26TprS26y7aqRGyadHeTeTJZKXK5KNJcFzakzmVNzK3YRxpDnkN9T9+1dyAYAk5/blMGY0LRqLOYnVFWXYXbbFeMIC4ljEmckADlbqfHdDSeZR8p4P+MI/eMT+dvgmbQMW4gh4TtGJ+xm9KrvGL7iW/xW7WbYim0YEncyetkmJq/bx4p9V9hxvYbzRo27Vo1ym8YTi86AiuXcGjanhtPhRnN6WdWmjFu8us1lwmqvRXPZdIdid6EJGFxu3HYbdosAUhjYiclmotZRR7WzDrPm4qfKR2w7vJ9pn3/CmOhIZn39Fdnf7uDygzKcbo26Gg27VT5bw2wWoxXWtFJdW64ckKbJ92weVnseYOKk7PXDrZhG2MaOUwFMQOZC1sZrSwIuL8Bcdg1TjQWHW5zbU27XHufs460cvJXJ1nPL2X5hDUfvbeWG6QxG7SEmrZJqayV2V526zxcPMDEe5YmcyvOKYYhR3HdrnCgrJ2X/QVZ9f4Bl3+5nyfYfWP7tMZL3lpB17DpFp29w+l45j6125dFUyOPWsLj1cMYh7NgQQF46b3ht+PPf/VqAUYPLXqMWWjzshSqNrFOP+OL7H/lo7wlm7zzM7OIjfFJ0ivwzVZy656bSLUATLy0GZvcYpFs5BAGOF2D1DOYFmHhql6YYw8tgVls1YkA1ZqMC5J0KI48smmL+O06N76/XsmTrGUZ/mEbb8Z/RzDCXtsEL6RC5grfDE2gUuBLDiuOMSzrL+PQLGNJLGL22hEHJJxiceoJRWacZtfYYfin7GJH4LQGpu5ix+QQrTtyj8EYNF+0aN2wa92waT+0atXYNu9xn/Ry7cNgtWG0mnMLWwhAuuwKV225XYHParLhdwhxiyC4q64yYNCtPrEZ2HNnLkAkGXm/XktffaU2HQX3xGTqQ199tR2/DaAq/3V3P+haXzKmL6toqBZjq6ieKRXVwyVpJeKrfm0QRMnQD19lL3dtzDCZs6vIwmDg7BSwPewmD2e02xdJ17jIems6x/dRqNhz+gswDc0jcNZFVOyezZvccNp9M4EL5fiocN7FqlVicRuyKZZ+z0X9ig7+fweTNPA8s3k+MS3IACadOllWSdvA4S77dz7I9x0g4VELKyWuknbpN2ok7rDl6i5SDlyk8WcqZBxXKoORvxchNLhd2t9y4DCeaW4ZLz/XqF947wf8TFhNPbaHGWqfu+6ZZI+vEUz7ddolpxSeZc+AiU787y5y9pUzO+5FPt5ay6rtrXDDqADCrBXfpIZOHcSU81NlJZ2A1P/UAE3Zw43a5cLhdisHEoGpsFvU3ZRaHYv77To0L1Rqxi3PoGPYZ7UPn8XbYAtrFJNBhcgrtJ6fRMiaZRqGraR65loDEC4xfc5nxa69jWHsNQ85NhmZdYcTGGwxcf4EhGy4yIv8iw/POMjT7KAPT9jIwZTd+yTuYmLOX1FN3OGvWeCzhp1PjcbVGncUTOpld1NWasdmEzSTUEkfqwOaWUElfI5eEjepnLhwqRbBi0Zycv3MVX7+BvN27M93HDKbjiP60G9KLtoN78Ub3DviMHEC7Ad357sxhTJoDs+ag2lFDrVWcjrCS41fXXoXo9dGNhGiyjsJ6DYewqTen1fPaelC6NNwqmnBgdRkVcz2sLaHwh+Wk7XyP1O+nkLArlLyzM8g8NpGEb8NIKJ7IttMruV5xGLv2BIdWS52tRn3Gz0jgRQBMqFfCIWEvCQ0lf9l94yErdh8l48wNUs/eZs3ZeySdeUDS6cckn3lC8pkK0k+Xk7T/PJvO3OBMWR1PPABVSblbJlfCAgnjZEghQoDm8WD1E/zHASZxuVWzU+lyq3vefs3Ox1suM634CtP23mDW8bvE7bvK7OOPid95h9k7bvPhpgtsvlLNbZVHuhTzqdzKU0R4ln/JonoKAhJGq7zFqbOd04HT7UDyE2+hQsJBcUxXzRqrd5fQMfQT2oV+wTuxy2kfv4Z20zNpNS2LxpMyeSNuLW9MlNfraRqdydhVZzGsLsGQch6/1AuMzLrCkKxShm+8zsC8y/TJKcE38xQ9M0/QP+cUQzaeZtjGHxmZd4JxuccwJO8mZM1uFuy6zOGH+n2IozPb9TzFZtEwWySnkchC5syJSbNh1Rw4FEPoLCGvbQI+lW/ZSchKobWvDx0G+9J2UDea9fWhxcBOdDD0pfOEIbQ39OLVbm/yRp9mHLl7kmrNxKO6R9g1G1XGp7pTlRzJO8RRCfs0KJroYZ8+196Cxi/CNrEZ+VvvUOvhxuWWAkY55fYSjlzNY03xbNL2TCPjUByJe8dScCmWzFOBpB8NZM3eMLL2z2JPSRpm7T52rUaFoGqN/wmoGoLvDzGY3a4pIxPDqnToiyMhx7fXH5Nbcpuc0jLSzj8m4cd7LD56h4WH7rDoyAOWn3xK4o9PWX30Fqv3X2TDqRucKTcrgIrRyWLZbbVobrM+VDFBQKeHCTKx+uT+TwCms40YtwBm5cH7TN18hWnfP2Tq4UdE7b9FzOH7RP3wgKjvHjNjXwVTN5cyf/clztTpobA4Flk4WXQJCXWAuZUnVwwsTkFyGsnTHBJOSlhlw6HZFLiEtW+aNOVcrlo1hsxYjE/ElzQOmMvbcQm0mpxKk/hM3picxd8mreev8Rv4r+lFvDW7mOYfbOfvcWsxpJ7FsLYEQ/YlRmZdwi/nCgPWnWfwhsv0XX+BnuvO0SvrLP1yShiSf5EhG8/Td91JeiQfYEDGCYavPcmotKMYVu0hMnkPS7df4uQD3VmKs5NnrK5zYbIJgCQEdlKjWahy1mDVbDhUgcqNVTkNJ2bNyY3yewwcN5L2A7rx7jBfWg/uzLuGPrQZ1ZW/9mnJm0Pe4c0R7Wg+vh1vjGrCxzmfclu7S7VWg9FtVFU75UwFXBKyegohDQHmrYp67UDlu15j90Y6XlB5r+LonE7cDnEO1Vi1O2R99wXpuz5g7b45JO6OYPW+8aQd9yfthB9JRwaSdmwkKT+MZc3uSAoPfU2tdhOLVq3C2RcOMIfNgd2hV8+q7LqhlNa4KL78gOKfKsm7WkH2VSMZV4ykXDKSdKGaxJJqEs4aWXXWSNKZp6w4eINV+y+y5fw9So1WVWhQk+eoQ3PLMKG5zHqCrULHZ2Xfn02qd3J/41UWRsI5YQ6pFn60vZRJ224yaf8TJh4uJ2TvbaKPPiFwz31C91URt99IbPF1phed5EerDjAxOAGYvJfcs11VEiUX0cMWvepm18HlkAKBDbfLqry0MP5lo5uHmsbeOw7+0jeCvrOS8YlPxGdWFk0nZ9B4ei6vT83jz1PyeXXqJl6dvoVXpm/lP6Zs4l8n5fDK1HQGZZ1iSM4ZhuWVMCinhIG55+mZ8SN9Ms8xeEMpA9dfpH9mCf3XltA//SwDM84xMO0s/VPP0ivlHENyrmIouMGY7BJGJh0gaM0+Piw4RfKey6oQ9diqUePSMDklfJdQzoZJq6PGWaMcidkhDkOci1sBsFazc+n+TVr1eJe3+3XmneE9aDO8C3/u0ZRXezWm6Rgfmo714fUxLej2YS+mbZpB6Oowss9k80h7xGP7I1VN/VWANXBmAnxvIcwLMsUYDcHVkP0UuBy4nDZcTis2rZKDV/OYtnwYS7fEknlkFit3B7H8+5GknRxN0rH+rDnel6TD/Vj1/VBSvgtj87EFmLV71Lj0nPn32N8fYDBhExcuCXkkRHTqOdjVWheFZ65ReOkB688/JKv0KeuuGFl7tZb0KybWXKgh8ZyRhNMVrDpbxaofy0g4/BPpR67w/ZV73KmVhxdmktheGExAJlcJFfWk0ttX+T0P2JCu5bUsisllV+whAJu26SyxO28TtvsBcUeeEne8gtAfHhH8wxMmnnETfaSWSXseMGt7iSqF3/PknZIsNwSY5CGSq6j7V0UQm85cHoA53RJe2T2VVo38C7V0jPqajpNW0CY2gZaTUngtPJH/mpzNX6fl88rUAv59cgH/Okkf/zF1E3+asZVXZhXxH7PX0XvDj/TJO0OfDWfxzT5Nr+yzdE0/Ra91JfTOPM/A9VcYvvEWwzfcYvC6awzMuMKQtdcYln0Tv40PGbT+Fn3WltIno4RB607jt+4oo9fsYlxCEetO3+HMU2d9ZFHrdGCy1WLXzKp8LzmkyWbxOBadwYX17hjL6Ti4J90MA3itUxNaj+xE23FdaT7Wh2bjO9AmsjNRWVMIz48ivCCM+KJ4ZmyYzrZrxRg1I0ZHFSazVC1/yWDP5lp3al6QKVtoCC75Wy/ABFxSiHHbcLrMONxS4Sxn5rKxhH/dg6R908k4PoO049GsPuxPwsEBpP04mLVnBpF6bBDphwysPzSZrceWUK3d4WldpXIqv8f+/gDApPAgxqOXVqUyJl75mtHMjvM/seXiXQouPWJD6RPWX64k+4qRrCvVZF2pIetKLZlX6hSbLT9ZTsLxeyQdusL6w+f58W65KjqIoeo5mAXNLcOGy27FbrerXtLPvNZvZK2GIBN6FyBImCZ9o+nFZ5jyw0Oi9j8m+odHhO8T5npI2KEKQo/VEX6kmti99whZt4c9j2p54NDDJ/G0zxZdwkPJScQ52LGbjDrzOq24rVKSlyKBi0q7WZXhDz/V6D0rhSZBX/HOtFRaxqfRfHoOf47J5E+x6/nz9CL+NLWI/5y6ib/MKuYvs7by/8Vm8y/Rmfx5Vj7/7/R0Omf/SJ/CUjquPUW/gisMKLxB93UX6JNzjd7Z1+m57jq+mTfote42fdc/oF9uGf03lDMw5zF9U3/Cd/VFuq45T+/cywzccoXBW0sYWnCUMbnfMyGtiFWHznHXk18LU+mOTyqK0h9zKXDp7C3ho4s6zcnjOiOzv5nL3zu1oMWgDrwxoCV/HdSEjpN7M2FVNJM3ziZ+6yxivo0lrDiE4A2BBKcG8dnmTzlRfoJarZYaR3V9m8Nl84BFtRNcSMXR+5lylXK/t/T+DFR6dGGqrq2vNlqd4hxqsWhG5i6fTujnAwlf1ItV+6eSfHgSqSejSD01gdVHh5F8bBDJRweScyaANd8HkLg1isNX8jBrT1XYLMB+sQCT/EJCN4c8gB6LS0/lRpWJnSXXKL5wm00XH5B/6bECWe7lCnIuV5JzuUpdsy5XkyRsVmIktaSC1BO3Sdl3ls0nL3K5rFKV7qUQIV5HAVkZrROnw47N7lAT2hAwv/+1ANiucqHLmkb8luNM2n+H6INlTDpczsSDZUQfKCf0wBPG7H3CqF33GLf1IuPSdnCw3FwfynpDRJlwCRF1gEkVzIbL6u0dOXA77dTZrTyqMSpQX67TCE8oplHoYlpMTKbJxFReCU2k8cwC/j6jiNemb+K/5mzj1emb+FN8Hn+bUcibswr4y8QMXo1O5q2ZWfwpfjX9M09g2HyZgZmnGJJ1hv5pJ+mWcIi+qacZtuEa/dZdpkfaJXquu0G/vIf0zS+ja9ZdOiZfYcyGR4zMvs2A3Ov0zC+l65bzdNp8ki4FP9A7dwd9EjKJW7+J09U29bzyjCqPrKtWTXa7w4rFJfmMziYmh41Kc60C2bbD3/E3nyY0G9iWPpOG4P9VCIGroojPn8WMbR8QnBdBxLfhROwKJao4nPCcEKasjyf1SCqXqi9i0kyYNSt2l1QHdWO22Z8JEn4GMIlIvMWMetbSsNXpUY/DJWoMCc1NWLVqkvKWM+2bCCK+GU7Esv6s3B9PwoEoEo8Gk3R8LElH/Ug9PpL0YwZS9o1jzc4oth5byLXyI9RpUnnUw9MXCzBVQq9DU6oGq6qMSYHip6padpVcY9v5m2y5eI/CSw8VyDaWlpNXP8oQwKVekPzMTPaVWrJKykg/cpm0PafYcbqUa0+le64pb2X3lIKlcCAAk/H7AfV8QUR3EFbNzSVNY9LmI0z84RZRBx4Sf6iM+ANlRH5/n4Dd9xi47TZ9ikoZuuEEY5K2cKTcrFoK3kWViRbjE3aSMrY0OvVSsw2XTcJbvVQsOV+Z3anYK3nfj7w54TP+c9wCWs7M4a0p2bwSnUGj2Vv5i4SFwmBTNvIvYSm8OX0Db79fwOsRK3krchltJiXwN/+P8YlfzsTMg3y5+zqffXuFuTuuEJ9zglFLixm8cAtj1vyAX9phhmWeZFDWWfquL6Fn7kV880rpl3uF4ekXGL3uEoPzLtI9/yxtC4/SsmgfLfK20y6rgJ6p2QxYuJzv7perMFEMS7OYsVeUozmtOB021VKRZxcWt7lcPKk2InP62FLJ9G/eY+T0sYQvjOWTTV8wLX82k4umE79tOobssYTtCCF8ZzAxOyKI2xxNTHYUM7Kns+FMLg+1R6roUWmXfEfyWo06q1VnKnFmTnFm+lCf/ysAk+jCZK7B7KqlVjMqcOw6W0zExxOI+TqQ2JX+RK8axooDU1j+QxgrD40l8choVh8RcI0j80gEK7YEk7P3Uy493kut9hizqw6LU3/e/wWAmdGcOoPJJOgMVseukutsO3+bLRfuU3TxEQWXHpNf+piNpXJ9RH7pQ/JKy8i4UEHODQvrr1STW1pJYekTck5cY/3Bc+w4c4UHFrfynKo653JhkcUViYoq2Uue89ulKr8ApKrwie7MrULE+OJjxB64Rej++8TsuUfUztsYCkoZXnSVnpuv41tUypCNpxidtJVDD8W7enpxnsT7eYCJqkBA5rDrRuFtZUjVstTsIj6lkM4fZfFfkzL466RMXo3L5G/T83ljTjH/OSmHV+M30GhWEa3mFNBscip/DZhHo/Gf4f91HqnH7nOqSqOkUqPcU6h54NJlVKL8KDVrnK3T2HrTwsID1whO38WglZsYkrabUfnHGVF4iiHZRxmZeoQxmScZkHOMDuv30jh3B2/mF9OsYAvtN+QzLH8Tfb5ZzHf3yxTAbConcuA0VqI5JEyUfFOa57oDkdd1Npsq1Rvdddyqu09CcRLxidOZteE94jdOI2pjNJGbo5hQMF4BLHRbICGbA5m4LYZpW+OJWRfNJ5s/ofhqMU+0CjUqXQIOYSAXDmEoT64lOaAUlPRIx1OK9zKY3KvmprzqMRXWckxaNSVPzhC/OJZJSyMJWzCOmFUBRK/2Y8XBeFYcDGbl4TEkHh1J4sGRpB0KIu37OFK3z+bgxQIFLoeoWtx27NLL9Kz7L+zqH6QrfywHkz6VS/RiojnzFDmMVnaU3KT4/D02XXxE4cUy8i+VsbG0rB5c+aX32Vj6iOyL5RTespB3rZqci0/Y+lMNW69WknPiOjmHL3Dk5lMeWPUGtNmtUVNnwmnX8zHVG1N52vPM9Bu/VgCTZN3NNU1j8o6TRB28w7jdtxm/5RqGDRcZknmOfjkX6Vp4nW6brzKo8Bx+yds4cN9EbcOE2uPBvQymi0MFYHp4I57f6NR45NBBkH3qEvFZOwnMPYvPwn28Ni2Xf43J4NVpG3ltZiF/nrKBFh8W03haFk0nJvHqqPcZ9fk6Thn1hvA9UV0Iu3tUFzazm9pqK1aLu17rKA7gTq2DOw6NCxaNLT+VMffbQ0xIyWNUYg6GtM0EZu1l9Lo99MzcQdt1m2mUU8CbeRtpVZhP18ICBmSsxX9VEqeMJhXWmh2Sd7tw20yesN1TdJIigsyHZx6kZF/tMlGrmTl67zhfFMwjKjmaSXmTmLItnphtUSr3itwRRlhxEBPyxxG5OYzpO6cyqTCOievjmFs8l0OVRyjXnmLUaqgQ9YQwllNDdIt6aC4A9whxlTbWk6sJuESGZTNh0yw8dZbzVCtjwcb5BM8PIHJ5CIGLDUQkjCUqyY+EI5NJOBrE6uOjSDo2nKQDI0nbH0r6zpns/nEtj2p+UpVNccYCatE7/i8oOcRriSpBhJ06CKTRXGp0su38XbZcEHCVk3/pKRsvPUFCRJ3BHqID7AG5Fx+x9ZaJohvVrL8gIWQFm64ZKbz0lPyz9yg4dYOScovyngJgq1cnJ0UP0capat1vBNTznkUA5rAoDyw5WMy2EwTu/YkRxdcZueESQzPOMiTzAn1zruBTcAOfoqv0LShh+JodHHxoVQymqlyexVSe3BMi6gCTUFHPGYSBq9x6E15EuB9s2EF4xg7G5pYwPPc6PZLO0Gr+Ht74sJi/zMjnlYnr+NukDJpMSqZVzFImp37PoYduVfEUYEmoabU5MVVX47RImC79NU+fTaqVMpwiX9KlW1LIEeYUEcDhSjNLvj9K8Kp1jFq1nu7L02mfmM67G/Jpt7WI5gU5NM/OoOO6dHyXLeX9LcX8JCV6eS8RKbtE5ydKDrtH8CrKCDcOmxOrWcQBEi5Lyd6uyvlPtadsvbKFGTnTiV4fwbSd8UzcFU1YcSBR28KI2RZBaFEQwQUTiN4aQdzWGGI2RhO3Po5vvl/ABddFKjQjVVq1YkYBmLVG+lkSQQh7icpEeqRSKRTxsac36XZjdtZh1aSgVEHyt6sJ+SqQ8OVBjP56BCGJAYQkGIhIHMbKI7EkHBtH0slhpJwYQsqh0az9IZriE8u4+vgkdqVrFFGwfKY4lTpcblGcSDHrt9nf72YwWTzxzGL44i0FXKJDFCnR1vOPKLrwhPyLleRdqmJDaSUbSitUDiYg21j6gPzSBxSWPqKwtIyia5XkX6kkq+QxORefUnClmsLSKvJO3+G7q2WUVliUslzlAIo1TWhO8aISJv62B/zF78lEeXo4Z90aEwoOMnL7ZQZsusLwDZcZmnmRYdnX6Jd3E59Nd/HZcos+my4xLHU3Bx9JQ9UTkngApudheg6mC01l8fVKo9Ghz4/IkY4bNSanb2bMqs0MX/cjozbdZcyWBwzNu0nXxNO0nv89b83O5y9RibSdtgbDwiL2PdB7jE9torAQRYsDi6kKu1JVOKh1WjA7zFgttbiF4SVnFS2nhDHi8UVIKw1jTzh5zaRx8ImdObt+YMi6bN5JTsRnYxY+xRtpnptKi7RVdE9PJrqgkOLb99W6CgOLoxBJkwxRclgFyMJcHqM210q+KfmJF2AmjFol17UrrC/NZMaWKUQUBBNZHEzw5nFEbQkltjiS2OIoQouCCcofT3RxJBOL44jIDSc2K4aMMxlccV6jWqtVPTir1YFm1tBEia8AZkWF42ILCmACMqkQS4XTTrm1jL0Xv8f/fQPBCycQsNQfv4VDCUoeS8gqA+GJQ1h2MIzlh/1IPN6X1JMDyDxmIO/YNC6V78TofKzyP2nHiCBZdg1omuwekSGvf5v9/SGAiQGJNxWQyeJ5AbblvLDXEzZe8gJMQCYAe0KeApiw2EMKr5az9vQtNlx8zJabNWy49ITsksfkXaxgQ0k5264Z2XT2DntK73PXJIsq1STxGp4mtBJ3Ntyf81xO5glbfnUSVEjhVKHeUavGqKzdDCwqoXfBVYbl32FY7j0GZN+hd94DOm8to+u2BwwqvsaIjL3se6w/rxKcNmAwcQAyJB/Tu/y6CNgkW088W0jSTt1iUu4PjM85zphNt+iTe5Oe2dcZWvSAoQV36Z95kb5JJ+jx9TbeCPyCvIsmxTyPBVwq/3ChmatUf1AMqNJZR6WtRoFNnxvZUmLDbJQWgceje7b/mOU+7BqVdl2lf10ULJcv4J+7ln7pAqoEOqz8hp6JSwndkE3u1avqsxskNlUAACAASURBVGVty00Wj5JDtp84qZUtLBIuedQ1AiynRZhEw6GUErItpY77tns81Z5wU7vByuPLCV8XQnheCGGFIYRtDiN8cyiTt0czcWs4ERsDiN8WydRdEwnZEEjUxihi18Wx5dpWqrQqrJqF2toavb9lF2BLL9arV9WvbreEjDbVq7NotZy6fZTJC2KIXBRKREIwASsMjFo6nFHLBhO2ZhThSQNYvD+ExXtHkXBgGOlHDeQejWXr8S8xaTfU/jCHAEt9noZDtKNWUfp7NZMvCGDKaD2TazLb6xvNd+0aW0vusfXyE4quVFBwtarBqKDw6hOKrpar6/YyF6klD9lwpYLNP1WTd/4hxVcr2X69mrwz99U2kaJzD9hx4QHnn+hSKgGZ7FESoa7NWafCMF3oKdTtwmG14rRadVmVx/iVl20ANqn+CRDEI4tTOKdpjMzczuDCc/QtusXgTVV0TLlHz1wjXXIr6LzpCb5b79En9zRjcw+x/YFbKUBUFdGpe3EBlbyfhMvieJRXl4KMy47L5VRqdTHo5cfuMjb7BCM2XqNf/iN6FlTQs/AJPQse0Sf/LoM23sBv/QXGrzvFzLwflcpEdJrCQIoRzSYcpgq9Aa9JiCvhmnhxmRNPS8Or3xTlu8uhPl8KEbLPTvqVVqmueZ5dlCRXHWYOPrpD0YUzFJac5sD9W1w21+jM5dGZyueLwFm2oMgQyZTknMIU9dU0L5t55lpaFrWa5G+1VGpGSp1XWPLdcqKS4pi2dTZBxZEEbgsmMj+AD3ZEMyNvPB9ujya6cDwBuQYm7pxEcHYYsamxXLOXUqdVYqyR/XMObLJdxlPQcNt03afdYaKq7hG1WrkqStyynGdB3seEzBtN3KpgwhLG4b/Ej8BEf0JTDBiWdyNgZScST0wj9cRMVu+JZ+2e9zhUug6rdhOnVoFbRA6iX/TItdwitRJFjuyP+x01gN/NYEoXKJsNRf1udVBtcfHEqnHV6KLg1DXyzt4mp+Q+2SUPySp5pIa8Xl9yv/77yWcfKJVH5vnHZJfcZ9cdE9/fNVFY8pCtpRXkl5SRd/YhhefusfvKI0rKqnlstVHrtlHnNFFR/VTtP5JcR0CmHljF4hL+yb09C18agkyAIUCQqqdsYjyraRgyixlW8CMDN91k0KZKumU9oft6I11zn+K7pZzBO+4zast5QvKPsP2Rng8pRbnsCfMwl4BfQKaYTRZfSvR2kXpZqHZrCMAWH7vHqOzT9Jfe04YHdM8ro/vGh3TPu0PPvBv0z73EiHU/Mj79ECmnnnDNrlFm07CKYkQZlB23KM6VusVb8PECy7tDW64CLAG3XKVvKCJjZ/2QHQsyB7IhsuGQRnGty061w6r6WfK1jGfA0n9fxMqqqqdA5okcvADzzLvT6cTqsqliR41mpkyr4MC9oyzelkB0ejxh2yYSvCOMmbsnEpNt4LOdE4lbb2BicQhR28OJ3hVHSGEU7237iEU7FnHPeYsa7SkW2SQrxu3QMJVb0KQRrSIHCxW2B5i0J5RpN8k8sor318czOS2MaTkxhKVMYMxyP/xXGQhY7UdoWj+CEruQdPI9EvbNZummmew+l80T6xWlsne7a1U7QnOIllTfOeF2unC59PGrkdE/CBn/EMBsNdJw1CtJYliyV0oYbNvFBxReeMTG0ifklkqDWZrLVaoUL4WMjZeeqoJG+rlH5N+oZf35x6w9dYsiycculbGh5CFFV6rYWGpk03UTmy5XUVTygH3XHimliOz0FaMQZbeEKboXdSlvrQuC3bhteqWpHmSy+B7P6mUwk9vNQ7fGaU1jbEYRo/KP4LflCiOK7jG86AkjthgZWPSYPkU/MXDTBUZuPELgum/Z+cCqvLsk2bqSRWfEnwFMjMxhRrNIOGdWDKRExafuMiH/DKOKrjE4/xYDC+4yoPAWAwquM1jaAnnnGJtzgvDMH0g+eofrogUUIDg1zHUCHKnYWT3A1fdkqV3V4uzUz+Tn0qB31xuCbhBuVU4XJpNdzMJmZpeTarsFo7WOOvezja+ylvK1CHdliEJDhvS3no3/HmAuh+74LJqFClclVZpRMdm+2weZnfMBYTmRxO+aQkRhGMG5AcRsCmXitkiCCscTvj2SgKJQYnfOICJ/KpEZU8g4kcsDrYwK51O91yihW7XsVtBDcqkYVmlPeaI9ovj6FmJTolQeN6VoCpO3TCEkNwJD+nhGpo5jVJIfwxd2ZMKK7iz/YRbLd84m5/BSbtZIUaMMu2IvyfWlaCQFMQ/AFLicKip4sQCTkqlZCg16iCB5xgOLxnWzxqaSO+RffEzupadkl1aRVWokq7Sa7EvVrL9kJPeikQ0Xqyi6VkPu+TKKLj9l67UKMk5cJ+vMHYrvmMm6+JTsyzXkXDOTc7mG7HOPKTx3l0M3n3LTaKPSpotLpdkoVSvJeZxOBy7xNs95UgWy5wCm9630vV1SRZyQtgH/vD2MzDvOgLTjDMu+yPDcKwxcX0Lv9ccZkPMDhg3fEZxWyKFyXdmg4n+nhKPPQk5hhfrcTGRklircjhqVt1x1aHy15wx+a75lYPpBRuSeZXhuCcM2nGXohlMMzz3O6JzDBKzbQ2T6DhL2nOeeS6NKdlvXeba5C4hEOWOVIwv0Qka9E/EwhyTkvxgeOZE4FxkiL5IwWe5XhtnlQJQYcvV+T1jKO3Qxr8y5Lu7Wf0dv9KqQWDz3L+Zd7lVCSTtGl5Gn7icYtWruaw8oLCliUkYcM4tnErEpjshv4xmxYTyR+6YxflskE4qjGZMfRsTOWfhlRTL52y+YtPFTiq5/T4VmwuiqxWYSIbUepdS5LJQ5n1CuVbK3/BDTN75HaFYsUZunEr19BuE7phH+7XRCdkxl3OaJBGwIxW9JT2KSh7Nk92wyjyziUvUharV72LWnuOVICNHCquqsgEsvnih7dztVBfP39GF/P4Op/U5ScNBL0ZVWp+pZ/WTTKCy5R/EtE3lXdYCsv2Zl/TW7GrlX7Wy4aiP/ipkdN83sullL8eUnbL9ewabLZRRdr0Rys7UiEL5hJ/26g7XXHORcs1Jwycj20gp+vFfHvVoNo8OFHFNQYzV7CgtS6fEArGGI2ABc4nVc4t0lF7G5qHHr525MSFhDRMG3BBbsw7BuL8H5pzBkHcKQdxhD0QECNu0hsnAHgQkp/HCrjHKzMIUw2LMcTIxOjLbe0ARg1ipcDlGlONX2/2UHTjMuvZjxeQcJzj+iRmDhISYUHCCwYD+hG/cQnbuTqVnFZBwsUbne7QozT416KGqtE02jlMOFvX4FSL/xewponrxOAOIdNqdDbQiVr2VjqAy9/6M7Mu/viYPSpWH6dnzlzX8BMAkdhcXkrBErRlclNZpIxaq567pF+oEkpqybwsTt7zF2+1T8dk2hZ2EwwYfeY8y2iYzdPoVh+dH4fzuHCTs/Iaz4c6LyPuOIqZQnmolaOWLAqVFlquGJq1p9b7/xNF8eTMCQGUv4zveYsGsmhh1T8N89ncD9c5iwdxb+304naGs8MzdNYnJyAEn7v+JE+W4qtFtUKYAZcatCmuccEuXIBGD6mrvdIhz+fUKHPwQwl0OazPpBLRLGyME2ZypsvJ9ZzNxNR5hTcJRZBSeZWXiGGQVnmVlwjln5+vgg7ySZh26ocyJSvvuRKSuz+LLwez4q2MPk9buZtuk4kzafIbrgDBMLS5i1+TzvbzzJh+t+YFHeITK3H1MHw6hwRozCYyROb9PTC6qGV098LADzsoyAQooIo7+cR9T6PAIzNzIhrYCI9TsYn76J4JxiAjZswj9rPcEZ6Rjmzef0gzKVa6nQTPZ6qdK0Di4xPB1gsiBiANU4HSIf0pX7i7/bz5BvEjEk5xGUXkBQ+kYmrN3I+LV5BGRsIDA9l/DUbGJXr2XKsmQeekrsNRa9aS1qFknynS6bchIuyc2eG172UvfR8PkbvpZ80e7AZrdjl6qfUw7Acakhr+V7uiMSZ6QPKWZ4hwKgYjO9UqoKHfL+DfNeCUet+v26hXU1M9XOCmq0KiVbum2+ysfrP6H/kgD6ZEfRtSiGDoVh9NgSjc+6APoVRuOTFkDfTfF0yoyg57pJ9F0zkZD1H3O87gYmzc3TmmrKHNU80kzc1mqYUbyAwWsiGZQTTd+CKDrnTKBzbiC+heH4bgylW3Yg3dcFMSgtiMnZEwn8ciQbTqZRqd2jSnvIA9NNdaKUXjSStdVDbn0uxWHorKz3YJ+rWnvs69dCxz8AMNmqIlUsuwojvH2wvBOXaDoygqZjp9M85BOahH5B49D5NAr9hsYhC2gSsoCmwQtoE/g576/eyi2zRsauE/QIiqdTyFTeDp5Ko6CZtIz/mr9GzufPEd/wWvhC/h66gKaBX9Jm3Cd0HPchfSbMYtfxc6p0LyCTypgYt8UqeYrXyD0L7v1ariqE85SvzU5MtTbuWK38W5eONBrvz78NHcyfhg3nlWF+/PvgIfzF38B/jhvJv4wawN8MQ3hzcB92nzyh5DJ6v0lyH50B5POFGdTnqxK5FCFM2B1VGJ3V3HOZmZSwkn8fOIzXxwbyypChvDJkEP85bBD/Pmww/yrXoYP406CB/LX/AN4e5kfa1u0qf5NntDg80iTNhdFUrZyKhHpqeNoDXmW53IcXDL+24PXfc7uxmM3YpPL6vIGoKrFeoXv+Z/Le3hBTnlsBrN65eOZdogib1SOrEta1YnUYMZrLsWm1Sni7s/Q7Ri6LoXNCKH9PMNBu80ReSx7Na6tG0CpjPM2T/Wma5E/zpAD+vmgkndNjafTJcGbtXMVVVwX3XTU81myUahUsOp1Ll8XjabnYj7dT/GmeNoa/JgykccoI2mQYaLZyCK1XDMNnlYEuX/thmD+WL7I+5tTjI1RrTzFpRipsZYpt7WqXSENwybr+LwNMwhRhMNlXJQCTzYtbSm7RdHQ0bSM+pk3MV7SMWUSLmGU0j1lJi5gEWkYn0Co6gQ4RC5mxOEf9nXjpWcvT6Rw4kbZB8XScNo+msV/w1uTFNJq2ircmr+Lv4UtoFrIAn4hFdA/7ih4BsxgWHMu5a9eVAUovTha8utaCzerEJSckNfSmXsNXB6bIzzylV7UT28n/07oxTQxDeHWIL80MQ2lhGMrrQ3rSfPww3goayquje/Lm6N682ceHfScP657M29D1GLN4dcWM8lniveukGVmHWx0JJqdtuZmTnMB/9vLlrdF+NBs9iOaj+9PEMJBGhkG8ocYQGo8eSvMRQ2nerx/d/EZx9Pwl6qQw4alSVlrqMLn1HcZ6LqQ/uzy/DDF4b17q7cf93PN6Kq6SuzqlCmxDChJexyTfs0r4pZyEAMzjNBpe/1uAuXFb5D30MNptk5OYbGqnenXNEyyOGurcNRg1M/k//UDnBaE0WTGB11YH8FpGIK+vC6ZJdhivrzbQMiOEFilBtEoNpXlSEB3Xx/P6h0NZfW47P2lmrmtm9mo/8ebsAby9bCxvp47ntRWDaLMhkNeThtIsfQztMsbRZoUfPZIDGZIRTd+v/IlaMokbddLENnLXdBuzVodFM1NVW+k5b+P5Z28IMGGyF8xgSszqsqiKnoSH0lPaVHKTlmMn83bEJzSP+JJm0YtoHruC5rGraBaziqZRCTQJX0mboPlMmpeiNHXXK6xKyjM8/n16xs3BZ+LHtIj5lLfivuHvcUv5r+hlvBmxlNYRSxTAuoTMo9vYmUya+w1fLF/JkzqrYrI6h+jP9FBKGYWnT1KfoKrGpISHuqzGVS1ldGmcavytW3s6BA6nlX9/mgzuQsdxg2g7uhctRvegWUBv3hzTldb+vWnk25bjJcc8XXwxymeL8AxcHg9ul/BIdhrIPiQrtZqDzacO0GhgT5oM7U0HQz/ajurBW4N8aDbKlw5hfjQx9Of1gT1ob/Dj3ZEjaNKlG33HjCU9fzNPLQ7VWhC5lIBVqpY1NitVdSaMljpP2VxCNlGUSMPVgWzVkFOhHMoji/LAe9aJXW2W/QV41Bz9CqAagktee4AsgFaORbGfh+3UnEgZ3bObW/LUhkOFt3bVHC9zVnNTq2HJj5vwWRFDszVRvJ4Zyb+ljufPa4P4W9oEmqeF0ColhKarJ9AiI5xmOdG0TI/C5+sw8p6eosBSQp+UeFotG0eb1CBaZwXxZupoXk8axjt5wTRJGM67q/3pnxpOnyUB+C0PZ9yiKMo1o1LsS59OdmlLtdOmGuhOXKqY9Pw8eAEm4PpfA5icIuRW+ZcOsFu0HBvP2xFzaRYxj6bRi2gWu5JmcatoGruKxlEJNA5PoHXQfD5J3MjjOrcC2Q2jlVMPKhk69UPeCZlG+9hPaTN5AW+Ez+etiIW0mbiSViFf0dL/I4ZMXcEHiZv4YvU6VqzNJiWvUIFEwijl0ZWkxWPkAjLFZB7WUjG1AEzvo8jP6jQXr7zbhFZ+PWg9qjtthnSky5ie+IzsStuRnWkztjtNRnekncGXJr5tOHnuiMdQPVKthsbXgDXlzEDJl8wW2UMkW+3tXDc+5C8+LekbOoa3ureki8GXdw2+NB7iQ/MxvWg9bhDNRvan2dB+/LVzR3qNG8+gwDB6+BmImP0RO06eVQeJPnS4kEM8TS4nRpuVGodNVQF1FvPuSxNnI4UoGXYcos1TpzbpRRJR+ntZymGz/4zFfgG8hs/oAZgAS4XF9SGixwDVHAtzefSR9VdRmciQMrfeh6ty27jrqua6ZmLW92n8be4YWuVO59XMSP41KYBXkgJokhxM6zWhNEsK4vXV43g1M5A3siJpvSwE/8IvGLbxQxovMNAuI5xWa4NonOZP0wx/WmYYaJk0il7rwum6zJ+hK0IZ8XUQoz6bwKaS7RgVsCxKqW/RZBeA1BM8rR8VDv4awOQZveO3qTjEGf2BHEw+RE+2xZN6T6HdVHKbVh6ANfcArGnsCprGJdAkNoHG0Qk0ilhJ6+Av+SgxR1cU2J8d+bb55AW6Bk/h3ZBZtAn5iA4TF9E68msajfuYLrELiV5ayCcZu/kwcSOLM/NZkJLBvIQkDpwuUR7daLJh86jMfxYiqnBHYmq9EqRCF6XrcyHnSLzq04QWwzrTbnR3OgztSEcB2YguvDuiE+38u9F8VEfaG3rQtIcXYMIG4sU8kyxG1wBc6rUoJ6wWauvk/AonNS4zdZqDEWEGuo/qQ4dBPnQe1Y13Rnal5YiutDT0ocmovjQdOYD2Y0fTOzyc3kFh9AuKoNe4MHz8xtLFP4iwz78mYct27tXoR76JykKci9EqrPAsXJQw0eqwYrbW4XBY1VkUTodUIz3VXznb0AMcCREFZA0B5/3Zr149oBKQ/YzBGhYBvAJkBTBPs1ZCd48DlHut9Zz6W6G5OGK5S9DGBfzH3FG0zJ3Ba6nh/C0llMaJwbRKCqXlmhD+unos/5Ji4LXsUNqmx9J6eQiNFhlotNzAO9mRvJU4mrdW+fFudhAdUsfSIzWQfqsCGZUQgd8X4xnzYQDJO1Ko0Cqo08zq4B79NCxdmSLsL/MmhZ2fre2vOJj6n3tt4J9c/xjARC3gtCv5jRz1LIrtzed0gLWNmKtCxKbRC2kat5ymExNoEicAW0mjiOW0CvmcOQkZivlE6yaqinKbS9+MuHUfnfwn0TFwDu3Hv0/nqPmM+SSd6UnFzF23i0/Tt/DJ6vXMT8nio6UJJOYUsDJjPRd/uqf0eirp/oXBC4N5wCUlVskN5NBM2eJur+L1ri1pPaIr7Ud2p+PQLnQf1k2NjsO68I6hBy1GdqK9oSdNerzNiXNHFSPoZ+89B7D6sFQHnNXixGKTxRMQOFU1cd+JvbTs1JK+hv50GtGd1oM70crPl9aGQTQzDKb1uNF0jQzHZ3wQXcaHMSAynhHx79E7bDKtRoyjud84ugZG0W34OD6ct4yczbu4fKuMu2WiONfBVmMRQ3lm/OrUXnEADQzFbpMDYDws7DEOaXOoVsc/MZaGhuUtpOhXMUp5P501dRGuVOJ0xU+9A/KcciwAE+esNmhaqynXXGx7epFuK6bQIiGG1uum0nLdJJonh9N8dQitMyJ5Kz2Yf08fyysZ42m7Lpa3V4fRJjmEtmkhtE0PpuVqA22TDXRNn4DvmvEMSgpi0AJ/AhaF4/9hAF+tnc9TxyNsmkkdPiS7QbytCBEpq71l9YzcgKEazFv9HP7GOZL5+oMAkyOw7DjcGtXSEJUix7nbtPaPp234J7SI+IJm0d/QLG4pzSYKi62gcfRyGkUupVXoXGYlpPLYLhStUSlhjtOlTjCSHOOjxRn4+k9l5OSvmbJkI19m7+HTjGJmr1zHhwnpLFiby+er05i3Op2vkzNYkJTOmux8TA7dg6sF/xmjeACmFA+y6LoRiID0pukxLQZ35h1DX94e1p2Og7vTc1hvegzpSachPegwpjct/LrR3tCHxj3acazkuAq9dAWJJ1wQjycs+RzApGQum/P0woNGrUXOmrAQNTmMdj3fpcPQnnQYPYCWI/vTfMxQ3o0IpnNMNO2DQmk5ZjydgmLpHhpPpwlxdA6Jp9fEOXSJm0WHCbH0GzeJYYZJtGjfnzdbdKdJa1/en7ucrd8e5drNSh6Xe3YAe+bBLgeKejV1Il6VbUZ1dZgt0m7RK4GqheF57f3er10VyLxGV//7+l4pCUsFXLpOUs8FJe+VHNXbQpDWgryvsJ+xVs6FF32nhavuKoorL9J1YSxvL4uk9eoYWqfG0jw1gqYZ4TReF8brmUG8ljxOFTyaLRtL02UG3k4MwGfNBPpkR9InPZguS/0YlRbOgPmjCFgYzKjZo/l8zVzuGK+rg0PluGyXCINdumBZlC/6VhTPetaHgf+EyV4owJRBudDsEiZq1Dh1xbgArI1/PO3CP6ZFxOc0j/6aZnGLaTZxGU3jltE4eimNIhfRMvRjZq5ao1T4lU491LG6XRhr5fwEjbuPrcxduJZ5q4qYn1LMp6sLmLt6PfNShbnSmJuQwKcJySxem8tnCWtYkLyWrxPWsGn7HqrNejlbFrPea3pDxHqASYgnZ3KYeaTVMDQ+iBEzI+g+YQSdBvXCp2dXfAf3o9PgPgoALUb0pN2Y/jTy7cCRkpOqkKDU5Cok8oSewpANACYGLfcgx1GbLPquXzl6WnPVcfHyGXoM68/bA3rRfuRQuoYF4RMeQruwMNqFR/F2cBTd42bROWI6nUOn0TlsBu8ETaFFQCytQuLpFvM+vf2nMzLgPXwHROLTPYC3WvTDp6s/Pp1H06nrGPzHTePrr9LY+30JN69VUVvlAZicyW7UFThy5kWtWUTTurFLo9liFwGx/vU/ugo46j25AE2BTOZdPzJB2jeyL07fuqOvR8P3qi8Ief5WmKPSWku15uSOVkfCqWK6Loim5aIQWq6JpnlWHK+vCeS/UifQJDOURkkBtFkdROtl/rReOobuqaH0TAlmUHooAxMDGLhkDIYVEwheHorhg9FMXTCRMzePKXBZ7dL8r9OjGGUXHufrXcufXf+vA8yJ06kf2yal+q1nBWCTaR/+MS0jPqN59Fc0i1tEs4lLaRq3lMYxi2kUtYCWYR8yJ1VCRP2/b8iJsFJSrnpSVW+k9x7YSM3exYxPE/hq9QaSCrbx1ZpUPlq6gK/XJDI3YTVfp2azOCOH+avSWJmew+y58zlw9DQ1JlGS/2OAiYets1VTp1mo1OyEfzWH2MWfMG72ZPxCAuk5aBC+gwbTadBAOowaQovhfWk7ZhBv+vpwqORHdR7EM4BJNdETBj0HMPHU0psyW3WwSQ5orXmqiiQpG3MZERdLW78R+MbE0H3yFFoGhdE8MIJ24ZNpPi6aztFz8J34MR1CZtA6MJ63w2fSKmImrQKm0G3UTPoNn0XPgVPoNTCenv0mMmjYdPoNnEifftF07hyAT4dR+LT3Y0DvYKbEfknu2u+4fbVWMVl1jexI0E/tFeMXYJksZuqsFsw2OTXqH4OsHmAyx88BTIAlVUzZTiObFXVR8LPcUMJlBTCZK5uElG7qrGYsTqkGu7hdU8YDzcwXezPpkTCZRqtCabw+jj8lB/Bqoj9t1kbw9upAuqVF0Ss1ip7JYQzPnkjfhPH0W2qg/zd+jE8IxvCVgZilEUR/Gcq3Jzdj1YyY5Z92aGb9P8ioFoI3dZB8Wu7l2fAev63Y+nmH4nnm+p/9N2z2+0NEYTCJ3212tamv1rOpcOvZO7T2n9IgRBQGE4AtUdemMd/QNHI+rUPn8H5yCk/cZlVkkK0PxqoKxTjOOgeWagemWo0fDp0nIXUji5KyWJySybxVq5i3ajmL0lP4fHUKXyRn8vmqNBakZLMkJZsFCWl8/s0Krt64rxQOzxhMwCbVQwGChIc21YuR02nFa0Z8PIv4+Z8zfd48Zs39gvDYeHwHDqbzoAH4jBxEm2G96TB6II27+3Ck5Gx9v0kWQRU7pHii3r/BtnVRWHgaweoq4avaSqNXFyU0Xrx+A90nBNF65GjeCQylW9xUusRNp2VAJB3CptJybAzNDdG0D5mOT/Qc3o6YScuI6bwTNpsh4V/Sb+R7dOk7mXe7R9HJN5bOPWLo3C2KTl3CGTRwKn16xdC3VxT9+0TRteM42rcZRv9eIUSGfcDO3ce4X6afkiRGX2txYLY/y90aAswb4nqv8jMFrF8ATKpwclamqGtkSP4pVc1nYbK8h/pbCVctLmpNcoy1hslqxVgrx1LLWSxWrmkVROV+TdOFgTTLiOXVVeP5S8JYOmRE8W5CIP3WRDF0TTS9lo5jSEIwAxYbGLbYn8FfjiBwaRARS8LoHdmD9B1JVLofUml+iEMU8rK1R1IE73opsAhTiZPXh4T/+tAjDwUk+b2G478BVUPw/QGASZnbimaz4LI6kM18ZS5R0j+myZgptI2eT/OYBTSJXUzjuMU0iv6GxpFf0iRsLk2DP6Dt+Cl8mZxGWbXszJWHEfW3/PcOGeJFNOrMNuwujZ37D/P1ytXMX7ma5RlZfLp0rUKxSwAAIABJREFUJUsysvkyeS3zU7OZl5LFF4kZzE9cyzeJmXy+eDWzP/mGOw+qqDLqYlyZGHOtbNR0YzXVqDMlnJosrGzO05g6430+nruY999fwEcfLWDu598w59OPCYgLpvPw7rTt/y7vDuxCux4d+bHkQn3O8qxk6+0B/XwRGuYvzyZcD5lEXiasX3zsR5r3HoDPmHF0HBvEwEkzeGdsKB3GR9J+vORjcbwTNoV3I6fzTtQM2kRMo23QFLqPm0k//9m07xVOu+6hdOkzkc494+jRO56efabi23MyPXtOomfPOHr2isG3dyS+vcPx7R2Kb58QGrXoS6+BoazJ2E6FUbSHz84YNJt11b3cv/ynGwklxfAFLF4NYj2L1RuaLrqWSOTn45mqxDsfXoCZjU5VmBKhgNHqwmSR8r6G0+ZQCv5LtsdMWPspzeeNp0PaJN5aPp62q8IYun4Gg5eHMHJJECOXBDJqSSCjl0zAsHgC/gsDGf9NMEHzg1m6eSm3Lbcwy740q7CXvgPBZdGVK14nIqAXkD8/5PvKmahn9K6xp/dZ/9wNiiH/4Ht/AGAi4ZdGrWxIc6nzGh67RMnxiGb+M3g3fjFvhs3jzchvaBq3mDZTlvHutCV0mDSfNqHv09YQzbL0LKpNteoBZOKVGl4A5ikjW+VEJlGI1NSSnpPHsjXpfPDVYhYlZ/JlQqoC2DwPwD5PXMu8xEy+SlzHp0uSmTV3AatSczFZ5d/U6EZvrRNtoB7OOaT5qgCmh5Kzpn7CFx+u4JPZS/nkwyV88vlCZn/+CTPnzSH2o1j84wx0H+pLk7db8sPB4/Vh0TPQ/PeT3PB3ZeHEqOSsDgHZieu3GTdlJu0Hj6BXYDg9AiPpFT6J7uGT6BQ+ifZBMbSZEEXrwBjahk2mY/gMuo6dyqDA9+k+fAq+w6bRz28O3ftOpVuvqXT3FYBN84wp9Og1me694+jeJ5rufSLp1ieS7n1j6NwznNbtR9FvUBTJqdsoK5e9TvK/ujQc8u+MbC5d86gYyE2dw0Ktw6yuukrk9z13/RxIC6NWWN9T9ZRDjUR3KZsnrXqxqM4iOZmNZQdy6bc0li4JkXRaHYlvSgxdFo9jxNJADIsm/GKMXRhEwDchBH0VRuGZzUrBb5IjB1z64a96K0IH/fOAEmfrHfIzL8CUM1GFD2+rp0Fu9g9AVf+sf6iKKDmHAEy2a7hkE55+hFjR2Xu0HDcTn8mLaBb1Fc3jFtIybhEtY76iTdTn+MR9Qb+ZCxn7/gJSNm7CKqJS5SXcOBz6BkEvwKR/Iz+TB75bXsGSpFS+Tkjis6Wr+EZAlpzB/NQsVa4XBhOAfZ24js8WJzHrkwXM/GAe+Zu+Ve9hrJJ/JqFhMelneYiywSr/xVFtHNSYNu1TPv0ogQ/mLOPDj5bx0RdLmPH5Z8xe8CkzF37IpM9mMH5SOL2GDOH0uSt6DvEbJrbhJDd8Lc9VWacfniP/OENAVmZ3q0by6EnTGBoTT8/gaLoGRuIzPhyfwCh8QuPoGBGPT6ToNqfQe8Is+hhm0bLLBFr6BNK59yS6+MbTtcdUOneZgq/vLHx9Z+LrOwPfntPp0XMK3RXQJimw9R8ygy49IujeM5yu3QPp2GkMkyd/yfHjV/X8VcBvrMNorNEFv2prkIR8+j+2+58CzGkVY9UwOVxUWvQjCcSoLXJstmfb/6WKUt7L/pLhC8MYnhjJwMRQhiSF0mfRGPyWBjBmyXNj8XgFuLELgvH/YgKz1rzPperLPNUqMNqq+P+Le6/oqK4lXPf5Pt2Hc+4Z45yzt/d2DoAAk3MUCIEIJmMbAyYjskAoR5QaBSQEKCeiMDlnECAkMggEJoukVuos9eN3R821FjQYexvsbT/MsVqt7l5zzVl/Vc2K5gaRYs04rOKi+eUZUwBlDI0utc+8BjB1LPivA0y4j4DLjsMpqeGaH6zk3B0+HD6bjycs44tpUXwyJUL5wz6eGEjbqSF4L05kclwOAauLyC/d9ZJDuCTD1iGp2K8OmdLmp8HSqD7T5GrhzMWrJGSsJ3JVOtGr1xOaupbwjCzCV2cRsspTRdQAFhASx5z5gRw4LGZ1N1arnH3c6qwn/i+LGDp0STJjzgoClplYsCiBhQGJLApJYGZgMNNDljE1eCGzwgNYEBnKD3P9ufvQ/IcBJvMRYvq55pmKpRRn8TO7OL01VTt5Qym+P86h29jvaOU7ktZ+Y+jy7Y/0nu5Pl8kzaffNFLqPnEu/kYtp13sqHXrPoNfABXTpOY+OnefQrt0MunSeT9fO8+nSWYDmT+cu8+jcdQ6dus2mU7eZtP36OwYOmk+fvjPo2/dH+vX9gY8+6kn/fuPYuuXQS5DZrE69R5iofi4alatB9undiMyTwXi+brJLPwKpTibxlRLbKp1PGrlvuUNKaTID5nkzKNCX0asmMHjlMIYm+uFnGsmQOKmvMUKNIXEjkCF/D105Cr+YMQyPGMPQpSMIz49SNe+N9kiO30j3l3359SHP6zl+v/R+dxVRUCy1H2RBbHaVOiLBvsXnbvHJyFn8c6RYuwKVJbHN1HAGLE1hcmIxCzO3sSRjM0tN2WzYuV8RmXAMKeZolypFhtFAvzZZm5SUk1oSIiX3nTiLaW0uIYmphKdmEpmeRYSAbVUm4auMM5gALJqAkHj8F4fivzCQh4+faxxLUjJcThwtUlZMYwwCsh/nrmDJchP+ixOYvyyJ+aFJzAgKZ3ZUJLOiQpkbHcbCqGim+i/h3uMGpTbJRngSyru8lu8Kh7SpCrUSUyhOaDfPbdJ/S4tsEQf8vsorzImKo92wkXzQox+fDBhCuxHj6DJ6Cj1HzGHQ6GV07KsZOVq1/47PW02kQ8fZ9OkdoMDVtfMCunZeSJfOC+jcZT6du/jTqas/nbvOo1/fBbRpNY52bSfQt/d0unf9jk4dR9O58wi+bj+Y0tIj2MR3JrlzVnFrCHFJ6JdR8MUjkuWd10JqOEqcppyFxFfmoN4uuWL11LsbeeB+RHhhJDNNMxi5fCijgnz4JnQQo6O8mZA0BL/YAQyN98Un3g+fBD8GewyfeB1kUkUqYjxjgyeStHmV+l2J3nja+FRv0KGfpTwNF8rg8ct9fRvo3mW/3w9gqmyVk3q7necuLdi36GwV7b5bhNfk5bSavILu8xMZHVPA3DU7WJazmxVZPxGYvpGgVTls3PEKYHY9B0nbRHH+CYeUDWzBXC+WJcm6dVPncFOybTcRpjQiUsR6uF6pi2Kmj1i1lihl5NAANm9xGIuXR7EoIIyly0Ox2Fw4XZr/R6yWrwFs3nIWBybivzgO/+WJ+IeamBkSw9zolUwPD2d6SAj+4VFMn7+Mh08k9OiXm/AuCy6fVaZqnWMK2BSjkYwAh9acr1bcHzrYpGjpseu3iM0pYMjUmXzSzZs+w2cyYLg/7bp/S/tu39Oz3xy6dJ9Bp04z+Lr9dLp1nke3zv66FDMANp9OOtDae03BZ+ASeveYRYd2k+jbewYdO47ny6986NV7PB06DmH79uNqnlKyTLpzalEawggNZvi+6yD7INkY2m/Z7PU8b3qK1O64435G+ukihkVMZPTKSXwXP55vo/wYHzyA76K9mRQ/kGGRPRka78PghKFqDEocircawxiU4MeQ+BEMjvBjVOwEhgWOwnu2L9srd3HXel+5Zsx2yXQQIeFpuPB87WGs0pmHwRQN1fFdGOx7AEzjZlJwRqk3zRrACs9cY8jilYyJzuJbUwmzMneyNP8gy3L2sGj1Jhaa8liRWsjKtSUUl2o9ekVVsjm1hD9DBGv15zSAyYO8qGtQ0q7R4ebeUzO5m7YRmZJB9Op1yskcbhKAZRK1ah1B6gwWjQAsMDSeJcsjmDJ9HutzC7TzWIPEBraouEAJ9BXJOH3eYpYExuK/JBr/5XHMD01kZnAMM8Nj+H7ZCiYvXc7C8Bj8l4Xy/IVNNe5WlrB35tweBOm5uXKGffJUSVkBmqxJvUMK0Gggk1jPZ45mHlkcPGiy8aCxmczivQTF5NBnyI981saXVm1H4NVuLJ07TaZrp6l07zKDbp1n0a3zHLqqs9i8VxKsyzx6d/fH66tJdO88k4H9FtDWayJftfqGTl2/pWO38Xz4aW8mT1vGiVOXla9TiouqyspuG031z3UG6PE877AWcn7TihU5cVqbqK+vxep28sxtp6j6KENT/BmcMoOB8RPxixrFmAg/vo8exvexPoyO7sPI+AH4xg9mcIIvgxN9GZToi3eSLwOTBGgi0YYzJG4kE1J/oP+SIcxNX8DIJWM597hSddOUCHp11hdG/trQ3S2ee6NLNQNgsj8y/usAk15XIgmEQJ81a0aOgtOX+TZmDcuK9pNZ9jNxuysJyNuHf9omFqUUszytmKCUfIKT1lKwZYcq5iI1z20OzVqlSYEW1VhAnLISLCvvCdd4WqslGYrR48KN20QnpxObtpaY1LVEmDKIMmUSvWodwTrAgiJNylgxf2koS1ZEsDBgBbv2H1TE22C3YFXJouIIbWHmPH8CAiOYvySM+ctjmB+awI+BUfjHmJgVsZIfV4Qzd0U4M/2XUlNTh1MVvnw/4jKeUUWWNzfTZDbjkudUm+qmoUHCeHSJpjeGF/VR4gy12D1NXa5p0CJo7jx2cvr8ffKLjzBn7kr695uCVys/enT9nu5df6Bbl2l07TqdLl1n0LmbGDpm0bnrbHp2nUundtPo2G4anTvNoGv3OfTs50+PAXPx6jqJfr6z+d8fdmVxYAINEpUiRKVcKNJKSixy768iym9ZjIgRPZFU3BYnzXeZvjWNtnHTaZ3wA92SpzE46Xt8wvwYHeXHd0kjGbHSG9+VArAhDIkfio8uxTQJpgFMpNgw02i8I/2YkPwDw8PGMiZ0EtPj53KmpoL79oeq44qSyKplsR4+p3L89KABFRj+yiRvAEyY338dYMKBHDrAGlpepauceWYl/2wVOWfvUHLlGfkVj8g8fgPTjjJiivYSkrmZFcn5BCWuZeOOA9RZtZoeAiCHVO5RXFAe6nVzqPFwBncXkJ27fEP5x2KT12Bak0tEYjqJq/MIjU3Df2kk85aEsyR4Jf5LQlgeHsv8ZUEsWhHMkbIzyjIpEQdWp8bJpv44laUBgcTGJ+MvEm9BMFMCIpm6IpbpISuZHbqSeSsimTU/gDqzVsFWm+t7gkzA9NLxbXDR11UWLX5Pqx9iPLdsrgwBmxQakiGgk/UQP5Y0MH/wwMrVK89IS91Cz+5j+erLwfTs+R2tvUbSufv3DBq6gFZeY+nXx59unWYxcEAAXbrNpXX7aXQdsIh2vefwWcdJtOn5PV90GkmX/uM4UV5FvcVwuoqj/o1sgrdILynb5rlGEu8n/d3kfdlPeY4XDRJO5abO6ea2q5mgnZvxillIz5I42uYF0Sp9Ht2SZ9Av4Xv6hvrhEz2cYcmjGRg3lKFxfvhE+dJjeW9Gp41jZNpY9X6HwB4MTx/PwJXDGJ48nsFRIxgWOYaJCVMZsmQE/umLuWG5iV2K2rjt1NdpkTVaL3An9nop2mqA7HWAyVzVWv8VEsyp+g23IOXPxMws0fRnn1ooOHOD3LPVrD52jbWnqskvv6fKYOccu0Jq6XGi1pcSZMpm8+4jqp6iLLQGMFE7hWDfBJj2/psge/iijn3HThOdlEpS2npM6bkER68iPG41sxYEszQknlkLglgQGEFgpJytgpm5aAnJ67O4cvuWOgOIV9/pbGS+/xwCAgJYFLCC2UuCmRO0kinLVzIlKJFpoSZmhCYyKzCKH/2X8ry2QbOwvYWoPAnqt1/rz6g20iPU6iVjEVVF3tcYjRaMqpVjk9fi9BWQSb14MQDJxssaSmBxfb2Tp0+bVKlnCRc7cuQSE79dRKu2g/nCaxBenUbQvc9k+vWbS//+C/n0iwm07vAjX3WehVffBXzRcw6t+/vzUZfv+WZWHPPD17G/rAppwKHqM0q1KZtkKBv79XYmI2CSYFpZB5mzVPyV9+Rvma+ov2Jgul+nZVGYDh5lWOoq+hSl41Vs4ovilXiVRNMlJ4guptl0i57EwKTv6WeaSNcwX/oGDmJ65gymZEyjx+Le+CV8g2/CCHwShzPENBLveD/8Vo1lYJQAcSTjTJPxDR7JyPBxxG9NosndyPP6xyr42umSxiKNNEvmtUgxSbHxBJkOqL8UYC7pdytti5qbFcAEZOVPmig8c53cs7fIOHGd9Wduk1/xkJILjykuv0vu8Wtk7D5H+tbDlB44RZ10BNEXXLWmEaJVqpIhwQyurm3imyB7am4ir2QrMYmpJKSsIyohnfC4NOYsCiUgNIHp/stZHpnIktAYZi5ezo8LFjNraQBr8nJ5Kn2uxHplfoa//2yWBCxl3uIA/INjmBYYy+QgE9+HrlZjckgyPyyLZdK8AB68aFDWP5nLb4Pot/7vyUQ8n9XjtQE+Jen0s4H+WqSbRL+Iim6XJnhSSkw3Cqk5SZ0Q1SBBImI0afG8zk1EXCaftOnJR1/15aPPhjDYbzlffj2ZzgMX82WPeXzYbQ4f9vKn85govg/dSFzROYLTdxCxejM/1zox27Xf+j3P/msAEwkmey70IpZnacGUV36d4aZ0OiUl0WVDHl9uXMvHG1fT9qe1dCwx0WFNEL3SlzIgfQFd4ibTfpkf83OXU2Yuo+RiCQMXeTM6bhyjTRMYHOPH8OSxDIr3Y9iq0QyOG86gGD9GmsYzLOYb+i/zYdiykWTvzlYlAp40Sl9oKw0W8ZFJlTBJFJXOQa8XvZFn/ksB1iKTkDNYs1b+TBas4kkjRWeuk3f2FgWVD8iVyr5SwffcPXLO3iX/7F0Kz91l05mb7DxeSZ1NmuxpE5eofGU4UNEWHoTmqQt7HDjlYaUg543b9zGlriUkKpHV64sJjUnWVMOl4SwMiiE4dhXzlocxbcFS5gYG8+OiJcxespTSn7argi/CiWfMnsXchYuYuyyERStTmRgQz6SwTCZE5DA2LJsxQWsYG5DEyLkruPGiCWnoIPd/f4DJdwVkbxv6s78EmKgrbwwFKD3ur8WBnIc1tU3LEtCsfZqKJsHG5kabYmaiTu48fIbBI6fyZbvhdPeeR5se0/ms+0z+T8dptBkWwpD5ecxOPUFQ4UXiSq8SkLGH5albqK7TavI3SWVkvQ7Juz6/qvZrs1Fndylw3Xa7OWR24h1jomtiCl1z8vksez2fbsjjo005fLElm68KUuiYn4R3URJ90gPpunI2fon+nKm9iNldyz33XVJ2p+AXOJzhEd8wNGo4I01jGbTSD1/TKIaaRuETPxyfOD+Gxo/U/GRh3zB6yTiOXTuhfGRSi0NAZq5/QpM4o5sFaHoum342lmdVWoKu3v4eJmOsz/tZEVV3jWbsrmZ1FpBDamVNI8VlGsByK+6TrUpnPyHngjR2eKIKiOaUP6TozG32nbumACa1NIRY1YSF86pMWyEyD9VJ0gre8FfI5x0u8aG5OXDkNAmrMjClZRESvQpxMs9eFEJglImFwTH4r4hgXlA4/sHhLIyMZor/IhYEhHD67EXFTWfOX8KMRYFMWRrO7NhMJoWvY1R4AX4RGxkatoEhQXn4BqzGe24EFbUuavTy28YC/nlXUbtk6M//GrAkQFUfqjS2dHAREMkQYtD6tWk9rcU4ZOdF7ROlZShmJFETUkfQ1sLR8hsM/zaA//mJN1/2msbXfgEMmpXOlIT9LMy9SODmauasO8fC3LMsyz1B7IYTHKs289jh5rldM7IIsb3vc4uvT5oFnnK7GbUul+6p6XhlZOJVWMznhcV8WFDApyVFfJi3jk+y0uhcvIZ+ecl0jV/G6DUxrD69E7PbRo3loWqud7/5LlOipjBogQ8Tk75naLTmdB4Y46t8ZD6JfvSP8WFQ3FBGpoxlYspkJkVMYeyiSZz++ZyqyfHU9gRLcz31DcaZ7NcB9pJef+cavDvABNVSc0K6/Tm1gE1ZtMqaBorLrikJllNxn6zKGtZVPmFt5TMyK56Sef4Ja8ofk1N2h0MX7lBvd1Nvex1gTptwD08CE/VIjAIevgkPSWa1t1DX6GD/4dNExKwiPCYF/6URzF8ezeLQOKYtCGRxRDzLYhOZHRjC0pUJzA+NYtq8QBKSc7l8q4aZi8NYEpvK1BATE8PWMCI0lyHhmxkQvo0+IaX0DNxA76Xr6eEfz6l6N/f0CJDfIrA3z02ef6tagzpHFEI1hjANLQRJGIrBYAzpJeCSs4F2PpAUf82XpgNSisk4mnDZ63HZ67BZzDgcjSr6Qn6/0SkBtBo45OyTuH4H/2w/HJ+p0cyK20b4pqsEbrrBzKxKpqwtZ3pWBXNyzrEg5wSL1u5lzZ4KHkvMoP4bv0eCyxnMbrers5c8v7Feilbcbubu2kW7pAR6biymdVEhH2Tn8HnJZr7csJUvijbycVY2n2Vl8nVeJl3TE/FOiSX2yG6q9TC32nopAWdRBU0PXjvAtNgfGR48ilGxYxmROIb+kYPpEzmQgfFDGBDno4ZP0jD8EkYzMXYqfvPHMsJ/LDcb71CnepBZsKu2yL8twf4agEnNOylg4nBic2kH1guPGyhRAKsm/+Jj1l94QkbFE1LKa0gpf0Lq+aekV74gr+Ixx64+UgAzS+S2hwRzSEiTEssGYf02wBqbJBLAzXOzleJNO4mITWXuolAWBa1kztJwZiwOZkFYLIsi45gTHIZ/WCQLI+PxD0xi+oJYYtNKmB6wksWJWUyNXss34dn0W55D75BSuoXupmPwbtovL6VjQAEd5qdyxOpG6swLkRoE87arJ6DefC3nJ3lmOYsYZ1D5W57DAJnKsDVApq7CUQ2ANeO0y7p4MB3J7VINJ8TKaVOHdpFidqdV5XqJ9UsMI3UuN88dbq49a2FedC7zEjazdN0RlhVfYMb6c3yXeY45G6qYvL6CGbkV+OeVMTdjN7nHqlTlMDFmSQskme/bntt4T57ZMGwYxg65WiwW7lskqfIkbaJD6LU5jy8K19Fq+2b+UVTAv/OKaLdlB60LNtEmr5g2Obl4ZaTRb+1qAg/t5aS5VmstrAdui7PabJe6hvVsPrOJ72ImMypqDKMSxuATO4z+0d4MiBvM4CTxlQ1hQPwgvKOH4hM4iinx/nzY/yt+DJ+t2tU+qL+PS6pLqQaPf6sEk2xmqXvnVCrd2wC27uzPZJY/ZE3lU9ZcqGXNRbMaArDs8gecvFGjAaxJyowZfhY3dqnJpwBmqIlyfUNFFJ+QzaJSXJwtLdQ12dRv/PzITFhsCv4BkcxfFsWsRSEsCYtn5pJgZi4NYVFkPNMCgpkZFMu0ABMTFyTxXWAKP0SsY1zIOnyWrcU3egu9wrfSOXQ7X4fswStoH22W76T1so14LUznhFVr5SrnGc0XpHFmDRgGQDTLmWZq1wwSYvkziFwI3TD3GgB7BS75XS3uT1RAGdKLWHKrJLVHhnzH7pB10QEmB3CX1Oc3XB3aPJqsFr3mhAbkJpcLS3OzKvEgxoXiEzcIyt7HovWH8c87x6yCi0wruMrcrXeZXnSDuSXXWFRSyczUHWw8d0+dmx5ZNSkoc5A5G0OeXwOXfq4UAIjmoRsHZL2eOe1crHnAjurrdApZjs/mIj7JNPH5xhw+KS3h49LNfFy8gVbFW/Aq2ESnwk10yMqhvcnEpKJC9jx9pqzVtU1SREcSNh3YLPWqhVOdu5bHLQ/J3JfJoPmDGR0zltFJ4/CLH4HPSl+GJYlVcTi+IsESR+Eb9g1jIibTamRH/lenf7EkKYgmqf6l2mLJOsr66rSnp+DIsxr79ep5jef+9eu7q4jq5iJp7IrIhVhEdbjwuJ4t52+RV3aL7PJ7rDv/SFMLK56SUfGMDHV9Su65exy6cBuzTeOqitjE2GEQiG6eNszUCmAGCNW1BYvtBc3uBpWaLl1ARKJIVMnR8qv86L+cRYFRzPQPYHFgJNPmLFHnsdnLopgwN5AFceuZHLqWceE5+EXk4h1RRL/QUrqH7KB9+C68wnfSNnQb7UN30i74AF7B+/kyZBttFqVTYW6hTvnsRIXT/EGy2IZEMiSRuU5rsyPWPavLrsrDiSHoscvNE5H4ysEuQcjS2E3PvtYBI3lxcq6SzGAJSpawLllfkR6P3c08cmq1ILUcLW3TPcErABaClmEAWeXcqfAkaSjeos6RBScusSizlBlp21m4oZL5W28xKecykwtvMmfrfSamlzE76ySL1++j5MQ1JTnkN82NTYrQPO8phKfUW9k7VzPOWrMGghY5t9m5L73I3G52WJ7R2xRDz7Vr6LNxE19mrePTvBw+KS7k/+bl8lFJMf/KzsarqJi+mzfTOTkF70QTux89URZHObO7JQVJMqIdmpRxSYso+wuV93XHUk10YbSqwzE6fCwjw0cxMnoUo+PH0H95fyamTMA3wpfRCeMZF/89X3zTnlbDu/B/O7eiZP8eLXDC3KgxDlWzQ0qMN2FufKH2Q7IJmhwWXZX/dVAZklyu7wcw1fRNAja11jcKYDX1bC2/RX7ZLXLO3WN9+SPWnq9RIJPzlzZqyDv3M4cuVGO2af4cIQhxlEqs4MtDvjI765xEcZBX3FKIxe2WRZCMXEk90UK2BGSP6h38dOAks/wDiIlPZdrMBUqqzVwcgX9oMosTcxm/PIVvgtczJDSP3pGFdI7YpFRBr6ADfBa6n09Dd9E2YjsdwnfSIewwbcOO8EXEbrwCMrlqdqrUGmVUUNY7LYFSCMwgZgGZAl2L9Mhy8KypQQFEpIb0Sr7d4qbykZ3HNi0USs4kkhVulAC3OeyY62u14qHScE4FJjtVbKIEAUuMopQb09LzNYnmSeyynnK+NeajSUcBrQTXCjicCqx5Jy+xZP12Zq/dy7yiCmZtuMGk3Gv8UHyHKUW3mJJVybzs0yxdv4/ioxfVfeU5JVfPeF5PIKt9UQBz4a5rwm3TnMoyZ+lic9Ttwjsvha/XmuiYnc3XuYVdKXSkAAAgAElEQVR8nJ7JVwVFtN68mU9KivmqdDOfF+XTsaSIDqtX0zsxiVWnz3Kp3qoYaINZ76pibcYtXTWbpUKxXaWiSBEjs9vMiepTzE1awIhlYxkVNoEfUmbRZ8lgvl39I4PC/RiRMA6f8OH0XTqErjO9+Uf/NrTy6UMnX1/2nDqnGNPzOg1kkpdmd0rqlHT1dGBuNKuaLNpZ+W8EWF75fbLPP2L9+RrWVTzxGDUUlP8ZALPgaqnD4bYqjiwbLYd4uUpgcGpGDv6LgpgfEM685THMCExgVmQm02JyGbIoBb/QQrzDS+gRvZFOUaV0Cj9Au9AjfBlxkK8i9+AVuoX2IaW0C95H6+ADfBK2g68WZ1D5wqFqVmhmcc1VYagOQnSGBLM5HNRbmtS5RwBxy9JM0k+H+CYihVbfLaSbfwztpwczNmYtJRfuKQ4vfiGpziXPIb8lUsxlb6BZ2hVJ5LmkCEkOnl1ClQQsWjS6luquq6eG2qj7wiSGUGkCKpFVDFOS3dukml5kHrzA0px9LMg/wez880wruML3+TeYtuFnJmVfYnbRFebnlbF47W42n7qqACYtjiRtRZ5ZntUAtlzFL6ruJaqhSBhxTusWw4tuN1NKC+myJoHO+WvoUVJCu7wiPlufQ6uSDXy+oYR/5+fSevNG2hYX0Skri86JJuZv28FlvUmHrGNTk5b1rPo0G5KsWTQBK40uqVImpdxt7L5xnHGRMxmfOJf+IePxSZhC98gx9DdNZkDSdwyMGMOIGElk7cpnfj1o7duf/69Na771n8/1B4/Vc9VZJCHYSV2jaEuSu9hMg8Winv2/ryK+TYI9rqe0/BYFp2+SX36fnPJHZJ2vYf35J6yvkFHD+orHFPxhCSbEJxnPkpn8ipvKJhtc+869GoIj4liwIprvF4TiH5/NhNBMvBenMTg4n74rCukWvIF2YRtoE7YVr6C9tF5xgM9C9vBZ6E+0D99Cx7BSOoTup03IAT4J38VXAeuoNLfQKLXcdfO4cDKD2AzJJYsvQ0AiUvWG2cbyrC2Mjl5Lj2Wp9Istokf8BjpFF9A+KJ1+UetYseMUR144lYXyvr2FF3Ynz2pfYKl7oTX6k0pIUu9e/DQSCyhdLtUe6D4ww2+jnNFidZX68DbsDZJsqlkknfYmGhtqqbM7ufjcSczmkyzMOsjSDRXMzKtkSu4lfsivYnrJHb7LuoB/yRUWFZzBP3Urh64/Us5hi/jdlKqpS2n9OSWAWisEpJ+79GzlmuYW7rrdBO3fTYeVYfTIT6frhhw6FhbhlVtEq/xivigq5p85WXyQsx6vkmK6FhbSNSWNHzeVcsjcqDqRihSstYrUdtMsaqKhKhqv9YiWercTs7uZGreD7HO78QmfwYjUxfQzzaFdzHd8bZqKV9QEugePZWrmcv7f3p/zb99ufNCnC218BvJRl05MX7qYWnsjZlsdLrcdi6MBq13UQi0LwiaxqC/PnP/59Z+qIpaW36TgdBUF5ffJO/+InIoasiuekKWGvH5MUfnPHP5DKqLG3cVKJiqqVjxSUyGtkrjYqJUbuHHnIfNWRDMnMo3xIRkMXp5J78A8ekeIhbCUjuE/4RW9ndbRu2kbfoS24cdoHXWQNtG76By9le5R2+gaeZD2kUf5IuYArVfkcbFJkzACKjkIy6LLaxny2lh4q8OhWe3cbn66cIdBASbaz1/F5wsz8Yr5iQ/CN9Fq1R6+jN3M/5qbyMfz4picvZMtt2sRB6xIsoYWCf5toLnRrIHKXo/bJq/1NrIq3UPqjsgQo5OURbBq9VIknEl8lVKuWo8AsdlsyLzkrLr5zB0WrN3HvHVHWLLxEjPzLjA19ypT8qv4sfAm0/OvMDe/gqUFp5iXvJHrdc1qTqKO21wSKmVIRlGRRU2VoUXmiIr61GLjvs3OY7eb3CuX6RMXQ481KXyRnkjrvLV8vnY9X2UX8mVhCR/n5/NhQR5fFhfQNjeHbmsymVhQwsZb9xW4DKkuibfCQAVk2hlMDB1umhu1v8Vt0eBseamOX3U3Ebgjj2/WRdI3fRmdM5bwVeo8Po78jr4rZzAxNYBPxvTjf/RpR+tRPrQZ5k0r7160HdiDqLSVqvH6gxc/q8BgZ7NDlVEQy22LgFp3FRn7/VvX9wSYcE6NwJXO73Zz8XEdArDC01UUlt8j7/xDcs8/ViDLqZCrjEcUl9/h8IVbf+AMJpxEkyLSZNwmPiGduFtcLVil/oYuzUqPnGVSYCK95sTSe3k2HVaU0GbFFtqH7cIrYg9fxOzmi5j9tIk4hlfkcVpHH8QrZiftQ4voFLKBr4N30jp4Hx+G7+LTpVmcMUvzP006/Rq45N4COCFkcUovyNhMr6XptFmaQyfTUb5KPM4/YvfzP0K38e+YXXRKO8LXsVv5alEqQ2LzCdt+mrPmFnWol/OZEJXm/xIANeJSpd80lUWTpFIGW1RI+b8Ft5TIbqrX68M306yfhUSiisp25bGNuC3nmJG6j3lZp1lQdJmZuZeZkX+dqbnXmZ5/Hf/ia8zNLmNp7lFCsncqE70YaSStxN4sBYRE3ZT7asVFxcopVXpFYst5XHoVSJP1/c+eMyJlFT5Z6+i8PoP2xVl8mpNJm4IivIo20apkowKYphoW8KXJRJ9VKWRUXlGMRrUMlvXWI35q7dJMQzcMiRpqc2OpdWiGDyn0KgWOxBjU0qzuX+m2MSIjij6rg+mVE0mn/Ag6rw3EL305PhGz+GBkL/6XFJydMJRPfXvSacwguo8ZQI+RPUkuSFJtlpxuOYO5cDpacEoSqq7+/haoPP/3fgBTB3wNYPLAoh8rgJ27SdHpKorK75J//oGSYgIykWYCuLzzD9hw7vYfBlizHt0hV7vUVTfOHmJZUt3gm6m3udRhflFaCUNDs+gVsRGv0FK+Ct/Dpyt28knwLj4I38m/wvfwWchhvgw5zBcRe2kduY2vw4roHFpCh5CdtAndx7/Dd/HJsmzK6ty80NUf4aRKZfGUXnLI1yWbMrq43XwXl0//yA18FbSVj6OP8P8s2MaHK0/xadxJPoo6yL+Dt9MqfDtd43bSJawYL38Tg8PWEL//PBW6W0AMJE9Uow3Noii/LWc1YW6Ko6vQKzGNG00XtN7CDmsLVmmkLs5mafp+u56sPZdYlnOaOWvLWFBwibm5l5iRfZnZBVVMz7nK7PyrLCy6xPysEwRk7WfdvvNKPVQGlmZRlTzOg812FTgtABPCls8IuH52uymz2RmxahWD0lfTbW0GXYry8CrJ44uiPNqWbKJtyWa+Kirm4+ws2m4optWadDomJhG4/zDlddJA3U1joxTC0aysIilrnfWqd7RNDGISsuWQAjpOrRm6EL5UpRJLp1gv3ZrPMvtWBX1NK/DbmEzndeEMLk5gUNJC/GL9+Z++HfloTF8+Hd0Hr/H9aTOqG90n9abf5N60H/IlVx6f4Zn1rvKPqQwBuYdeSMkTRL/1+j0BpsW9Sfd6A2CXHtWx7dxNik/doOT8PQrPP6Cg4pE+HlJY8YDCivtsKq/myIWbf0iCScUjBSoR2QZHcbqwmsU8LIDTrGt3G1ycfd6Cf9Fx+q3cRt/003RJPUfXlPN0Sj1P+zXn+XpNJd3Tr9FLRuYF+maept+qXXib9jDAdJLupjN4pZyifexWrukcWgjW06ihSVA9AkPUJZc0EHfzoMXNnDU78EnYQf/MCjquu0m7dXfwSrlMx9WX6ZJ+mc5plXRNPUvPtDIGrDnN0HUn8cvYR8/wLHxiswnZc4ZdT5u44HZTLRHo+qFfVCchaAGOMR9DVZXg6UbrK2A9dbnZXfGUhOLTBK4/zsKcChYUXGPJxmpmrBcn8yX8C6qYlX0J/7xLLMo7x9LsowSu28XOyjsKYELwtTZpsWpIS1FLRT2VIqOSJa65EkRynXU6GLnKRNvgINolJtA1L4cv1q3hf6cl84/MdP6VvoZP12bxceZaPlydhlfWetokJjImOxcxiEiVMmEMQswt0kJXyis025FOKNKpRqSlrL+yPAtz1cHVYnHhsGhpUI+tVmXMEbDHn9lPt6iFDM5aSYcYf4YkLmBJaSq+UbPpsXAcfRaPp//iMfSeO4Q+s/oxcqkvI+d7M2r2AO6YJaSuHptDou3d2Jt02vM4EvzJABNCEkkhaqKmwgj3utfo5uiNpxy5XcfeW3Xsrm5gV3WjPuR1A7ur6zlw8znXnzQojif+IAn4VecYpde+IlLNkauZ7j3VMfnsS4llSC6JalBDuLgWsydBqUIUcg7Y+9zN5MIz9DAdZMKOGoYUVDOo8DbeW+/iu70G3w019M+qpm/ONXyLr+CXe5qR2acZU3CD4UV36FdcxaCsE5RJoqMuPYSxvC7B9LkrKaZJmOv1bpL2XeLH4gqG5lzCZ+szepXU0K/gLoOK7jJk4wMGFd+lX14VfXKuMrDgOr4lN+i/7iyjNl7i29JLjCk8jl/GT/xQfBDTpUccsrk5a3UrFapaT3YVqSGAEzVOhszxidNN2W0La3deYuGqHUwMKWJ82Ga+jdvLmJUHGJt4nDEJxxgedQDfkJ0MDdnOyPAdTIj+ibHBBYxeuprFq4qVFiBAFqkp1XolvcMtlk0JzWqqQ0qCy1rIfUXSVricDF0ZS5/4OL5OjOfzxHj+bUriH6nJ/N+M1XyQuYYP0zP4lymFT1LT+GdMLK0TEugeF8+2Jy+UoUfupSSFqGRSyk0ZliTcSwCmgUzUVSmWI1ZNZcgRqSY+SmcLLot2DjfrLomrLY3ML0yn86Ip/JCbwNqre9lw/xhJZSWE7l3DD5kBjJDwqfCxjI+bwMToUYwLHsLkYD+Si8J4aq3G3mLGYmnAaReXx6vz9n96/R4S7NcBduzGE45W17HvVh17btUrkAnQBFh7quvYU23m0M1n3PhvA6zFqXoNC8CE+MTUu/pSHROLKxiYcYoxm+7gnXeNPkVXGVR6jyEbHtN73S165lxn2JZq/ArL8cs+w8j8G/gV/awA5r3+CKfMWk8zkRi/DjAX0k9Z1DdxDm+98pSZhacZknGSPuuv0KfgNoM33mZQSRUDiqroV1RF78Kb9Cq8Re+iavoU3aJX7jX65l2mf3YF/TJP4p1xmFG5J5nx02UCD90h+tAdkg7fIWRrOSt3XiBsw3EiSo4SXniQkJy9qmGGf0op30cVMzakiLERWxkbtZMRYTvxCdrO0Mj9DAnfh2/4XoaF7cEvbCfDQ7YxOmQLE0JKGLVoNd8GpHD4cg1PHdq5Rp7Z6rLgEoCps56EZWnO9gaXSwGsyu0m5cwZBiTE08WUSGtTEh+vSuKfySb+kZbKP9PT+VdGBv9atYp/JyTQJiWVdolJfLZ4CeurbnFJL2On0pdEgllbcIu2ogNMKk81qYaGVhqVD1SApNkDVBS8avznpLmuXmUhiHFCyvMJg6isfUDB2YMUXzlG/rW9lNw9hKmsiKTThUQeWsvSbXFMSJnOoKChDAroz/dx3/Bd+HC+XeZHVukqnG5Nelut4ibRrKX/CVzy/z8NYPcb3QjAJPL6wE0ze2/VK5AJ0PbcEqlmZt+tWg7ffMKNGtGltYiG95JgvyrFxEStSTGXNKZzaflqorZUuN2Yzj9lWNpeRuaUMySngoHFF/HedAvvwnv0zrpNL5Fsm6sZVnIBn6yzDM25wTCRMCU3GJC5n+PPLEoVEvD8UkUUySrqgwuX9OZyunjm1IKD15x7wIT1R+gatwvfoksMLKmk/6ZK+m2+RL8t1+mz5RY9N1XTrbiargXV9C25R/+iO/gU3WbM5nvM2PmERQdqCdj/lKW7HxB04BGLt99kbNp+xqftY1TiNsaYfmJU3BaGRRTjF6llAviEyHUbflF7GB5zEN+IA3iH7KV/8G6GRB1kWNQBfIJ+widgE6OCNjMpbBM/hBYyaUkaSbl7tXOQJHaK0cbpwCFnLqUW2rTCsxLZL7Ggdoc68+x58BC/xCR6JCbQdpWJz5JN/CvZxD9TkvkgNZV/p63m47Q0PjGZ+Dwhjg5JiXSJjGJeySYV4ylSWICshUKJlVAHl4ReqbAxp+rrJeBqVD2+rOp85HbrVlSpOC3WUzUctFgaaajTojDqWixcfniLA9fL2HR9H8XVe4k9vJ6EkwUkl28ipWIjQXtMzCkM4Jv4cYyN/YaRK4bg5z+QWWHfceHnMsTgYVdWVNGsfp8U+1MBdvxGjQLYwZtm9t2sVyATdXGfApeZ/bdecKSqhqr/BsBeqosSCKslzolvpq7FrXRxSZE42egm+vANfE0/4Zd9imEbK/EuuUz/3Fv0z79Pr5J79Ci8ge+mawzIKmdQ1nV8iwRg1xm4Zi8nntTRoOICNfVQVMS3qonij6kz86iuQalul51uVp+9xw+5RxlfdJrhm8sYtPk0fUtO072gjC755XQrvkqfzXcZWFpDt9ybDCy6x9htz5m5v4mAYw7CTjiIOm4h4mg9EWVWFuyrwW/1cUZkypntOGOzzzFq7Wl8Vh3CO34fgxMOMDj+IINiDzIwYh/e4QcYHHkY35hj9AnezdDYI4yMO4Jf+E5Ghmzl24hSpoQV8/3SDGIytlP1SCuLrqyPjhYaGsU8L4SlBx7rOYHyf5EQkmUQs2c/bRcvoWNiAl8lm/godRUfpAm4Uvh3Siofr0rlM9MqvjQl0CXNhFfgcqasz+aivVkBVBltDN+WxFuK5BKGqRuP5P5S+97qlsKtUrBUJJjudBdLqszJAJh08bSKu0JzyDucTdQ1mXloqWFX9VE23T7AyoPZxB8rJO54CUlntpB4diOrL24hdK+JqWvmMipsND/EfMeYhSNYuT4Ss+Op8o1pCa5/IcDUgb7BzYnrNRy/ZeZglZn9N+vYJ+OWAKuWAzdfcPDmc47+QYC9MihoYtrzfKadzSSdRvxBWt0Fm8vKCwk/0s8IZfVu5uQfYmzWYQZlHWJgfjk+RXcYUPSIbsUP6FJ0m4Gbquibe4H+2TfxLrhD35Jr+Gbt59yLOpqaLSoAV4vvewU0dTZUklUIQ4KWJbymmWc2q1JTb7jc7LjXQPiBSsYW7sW3YB/eufvxLjjOYAH6xiv0yr9C53UXGLr1IeN2vmDGwUYWHLGw9KCZ5XufErznEUH7alh21My0HQ/ok3yMAellDFxzjqH5Vxi4/gLdVp2k3+pyeptO0SP2CD0iD9A7fD/9ww/QX5deg6IO0j90F77huxkXt59vY7YzYUUB04JyWBJTwKnKGpVY2diknXebGmw0S1dQp4BLk9ISM2mXbAr9zHeh3sa4pGS6hEfilZjApykm/rU6mX+uTuHfaal8nJzC50nJfJWQxJex4XRJiGJIXCy77z5QALWItbNOfHciwZpVkR0584kBRdZRSQyVQSBOba3KsERYaNWgZV7a2VudwcX/Z7W8PI9r/xNVUkLP7FSYr7Pz/mkSDhaSfOonEk/uIOLwVkIPbSTx3HaSK7YRfXAdCwvC8F8TwIRlk5i6fCqN7kaVCS0Wzb9Agon+rZ1F3gTYoSpNTdx/U4Amr2sVuOT8dazqMVU1de+tImoAkwfUYt1EgiiLkmEuF0kmjlY5iLsaVHiQSkPQLV1yJttSVcu8Lafpl7IV79yTDN98n74FD+hQcI8eW2voVVJFn4Jr9Mu9Td88UdmuMqb4GFebLNilgZtEM6jUfQ1ghrqo5iYEqBqPiz/Oyou6p5ibHUqK1rjdnKl3YSq7zoJd5xiXu5eha3bjl3uSkRsuMWzDdQYVXGXmSRtzT9lYeMrK0pMNBB5/TsiRR4QfukvwofsEnbUw61AtA9dV4J17hf65VxlUfJveeTfpsPoCfbOrGJR7i2EyMi/jk3Qa76hDDArfh0/EPobGHaVv8HYGh/7EuNhd+C3NwXdWEiEp2zl18TlNDq0+vRiOrPU60UuhHQnilfqSLq3UXoPVToPeH67cbGVAUAQDktNolZjIRykm/pmewj8z0vgoTSRXMq3iTXjFxuMVE8rXoQEUVl1XRqgmm5tmiTO0CHMUq6BYp500SnCt1AExzjyGdFMGMV2CGJqLuop9QIYwAX1IgxGXXantDruFF5YXPHSbOVRzgegdecTtL8V06jCJp48SengX4Ud3EnPyJ+JPbiXhcCGrDuQRWWTCf+USGuT81yLhUv/1M5je6Po/AEzOYjIO3qzl0M3nHLr5lGM3Hv0JANMizoWgBWBicDCMDkqK2YR7Sf38OtwuM+6WehXo2qx0dze33G4yL9YwefNx/IrKGFZSTZ/8+3QoekC30qd0yr+ujA39C+/TI6uKfiVX+GHbGe6JCV79lk05u0VqGfcXkGlSTDZYTNkCbjls12Nz1fPcKp3ttSIvEvR79Ikb06EqZqw/xJi0/XxfVMmCI7WEXHIz90Q9c46bmXf8KfOPPWTJ8Z9ZfvwmwSeuEXSymsCzdcw8bGZA9gX6512le/ZV+hT/TM/ie3TKrsYr9SI911Xhm3+HETlVDE87j1/iCcYkHmdi8mmGrjzE4Ki9+Ib/xPCQTUwMLSEk8wBHL0qNQrdqrGht0MzfNqmkpZvBnQ2yrm7E/yhWWimEY9YBdsXhZkhUPH1MqXyekMC/Ukz8Iz2FD9ak8XFaKl+aVtEmNpG2UTH0SonHf/dW5S97Ir2bxVpotuO2iGHDpSyTkkkgVkAJfRKromJeAj7xiwnQ9Dlp1uNX0RXyOavd6Hsg+6O1h9U0jhYsyrJo54L1MWmHdxK9Yxsx+w+y6lwliWfPE3emjJCDuwjdv5W0s3vJrdhP/umdpJbm8rhZBINI1P86wIRLa+ZKISzRnR81NHPq+kNO3XrGkapnHK56zqGqFxyS681nClxi4Dh+4yG3aswqelzqakhtRCFMqQeorDPCedQDyENoQxZNhnxOLfTLWMBXEsSQIiJVW0T/VvXzG3E7BWAasdusktYgRS7dlDW5Sam8y+RNp/BddwbvvBv03nCPLoXVdM66gHdxFb6F1fTPPM+wwjMs2HFKfc+lCldqAJO5GBJUrq8AJuk8Fpotz9W95b5yVpB8I3Ozixe6I/Rei5uTj91knXlM9L6bhB+6R/SZWoJOPCG47BkhZ58QdPoey47dIPDYVcJOXSX87F3mH33KD3ue0WvNeXquu0iHjEq651fTa8MDepbcp0/xPXpm3aDn6koGpVcyet1FJq6tZNyqk4yM2c2w8E2Mjt2M34osvgnMJLn0HPftmlvD3OTGXKdlkVvr5VyjE7OU0JbXeqKnpBfJ80rFZUnDEf/cpOR0uoZH0mZlLJ+ZEvg41cSnq5P5MnUVrZKSlPT6OjyCbzJWKSYn5+J6AZgBnKdm3FbpeuNU+1TndlLvFlB4AEz3j72cl+Gi0WuFyJysTs0PatCEhHE1WC2qyaC0rH3mtvDM3cKBOzdYc/woEdt3Enf0BAllZ4k9fYqYk4eJO7mPzIqjrNxVTOruDey9VKa+Z9UTZv+LKqImwltEVdAfSh5EeiTfr7Vw5f5zyqoecOrmI05W13Dy9lNO/vyMk3efc+reC8rvPtO4pP5dAzy/Z8IauHQg6lzE+L5x1X7HUBN03VxFkwtDECekFq8mm1tmtrC+8i4Lt1UyJqeM4YUX+WbrbQasO8u3pTf5tqiCYYlb8S/ax+HHIoFEUkpolli1NC5m3Ne4avfXVFhlEFD31io/CReVtRIpIVxZnLNyNhTV8VKdmz23alU6T8zOcmL2XiT24FVWHq0i7vgt4k5Ws/LELSJOPmLBoTq+3fYC37xq+mddZ2DhbQaW/KzM/V2zL9M9+xJ9cy4zKPsiQ9ZW4JtWxvDU04zLOMeMdSf4PiqDOTEmTCWllN1+qAwxMhfN16UxDXme1/yNBiGraHmXdsZp0Zr2ybrIM5RcrKR3wCKGZyTTMSaUtisj6LYmmQ4piXweHUabuFgGJ5tUALBZhVa14FC/JxH4emkI+VuXOkZ8ozAvta4v5/DG3DxURmMffu0qvyVSSLSJn+0NHLx9jdTDuwj+qZiwA6UknD1AfNkeEk/vJnb/JlZuL2TTucNUNzylyS3dhDTG8nvoVT7zHlZEeTjJw3kFMOEaoi48a7By56mZ8ht3OHm1msMXq9h/4QYHr9zm5O3HVD6pp6pW8xF51mn4vZP9Mz4nRC76vSyWSLKKeidFV58Quu8qP24oZ3zeGUZkHsUveSfjUkoJ2nKEnTfu8cAlqkoLDU45g2ngep/5yMbLeslGi1qrTOB6uJmE99xzuKl87uDovQY2Vd5n9eHLxO4sJ3J7OdG7K4k8cJvwk1Zm7axlRPZVBqSdpX/GOQblVDI4v5JBeecZmF2GT3YZw9afYlj6UYatOsAI037Gpx5hVsYetpyu4OK9ap47LdSJKuYSq1yzmou1RSutJnNUIPsF0AQMEp4kURxaTKTZJblYbq5Y60g9so/WUybSOziAwYkx9EuM4evwIFoHLWf85g3sqDcr/6CUFJDwIyklIOOvogd5Jll7WXdhKtVNL9hdVUHGiZ3EHdxM7KHNhO8pImpPMcmHStlceZzKmp+pbbGr78h3X66LAfzfuL4fwITAVPd4reKrbIYQS4OjmedNDu7VNnCzxsyl+0+puPOYyvvPuP7CotQQ8XXIZ/+qBX0TBCrL2Fmv/CmGI/qqy83eGhfrLr5g5Ym7xJ28R/SBa2ScvsnxJxYVOCoct6FZa973LmbaN++vST7dr9PsUL2SZT3EGicSRKIw7tvc3HW4qXa4uWpxU/a8md23zCoTIeN4NVF77+BfcpkxKQcZHFPKwJVb8TFtZ2jaToambWdY2k+MXP0T49N38GPWAYJKz5N9/hknzVpFJwlFknspX6RbSu9J+JFGdGaLPKOnOv6GtBAJI6ZzMYcrjaCZZ9Z6Jd2FQdxyO9h6/RLzs9cxKjqSCSYTP65bh+l0GcddLcrfJRJPwGUATGjhr6QHp+ra+QpkP9vMlNVUs/NmBZuvnGbDxRMUlR9mz/Xz3Gp8/tL3aW4/1XsAAAm3SURBVJMyGe/IXN8DYMK9RQUSriPi8lVOlKH+yGbJ5gkBm+UgrHdzFC4nXEM+91cu6OtE7sLZ3IDVVUedy6LUIyEMURkl1vC8TcvAlagEeU/+J/OWz9pVn1+xDgpAdLXlna9i3ZJ4SbHO2Wh22rDbbTRardQ2NvGk3qKIX9ZOCFHurZULcHPP5eam3U1lo5vjT93suuNka1UjW6ob2XynkQ23zRTdfM6Ox1aO1rm54NIMOpKTJc8iYWPyW/LbtS4rNY1mXtibXoJLrHWNTnEv/AbApKCNzYrTYVUFT0WNe2ap57HqSqmFbF00P1dMSc5lojpKCJXM4WK9Va23VAo2wPVXSi9jzxx2uyrKI6lOIsmE2dS6nTxqsXDXWc8jt1UB677VrP4nnxEhIomdTr1CsfFb/+n6BwCmxYEJNxc/haH2CHhkQob6I69fAk46hhi1EMWc+s7E+b5E7fk9AYf4yBpptJmpszcqghNiFun6VCdCea2GCtyVtAzh2JKqobcjfd+5ixHHJsYXCR4VY4wYRDQfjnSWsUsNd50JybpJXlidlMXWCcETeDI/YQAyZ6MkgTh8JXJFwCTjod3Bw0YLzyw2VW5b9kXOgHXN9tcll91Cvd2qmN9vAszdoooOWeziD9TOlHUOK0+b6nlms1Dr1JobPpPecQ4xsbsxW11IPQ2hjSfP63GqIj2aevi3MFrdtC/HHFX9Sg8O96RZ7bV2xlR0qn/HKObze2n3vQDW3CIHfc3JJ1eXqjCrpZIrpDslMa9FWQjFnCsLawy1eWLg+FsBJhHa9Tid9aoRnDAIWVCRumapViTgEonSJF02tX5WKhxHgesPSjABmJRYE2e0RB6oWuh6momemeywWmh2yfp6nNckeNlqp7a+SWNekvuk5z/JvEUzMIa5RVrkStdIrXiO5O6J68BllZqJ0qlGI3x5TmGAMqQcgE0/f/0CYMJMDAKTz7scqpiPXSVaantrFcufS8r4SWq9rJH+HQl3Euujw02LOJKViV0a32vnrr+FDuRZdGuo+PXUENXXeEY9HUb+dkm+oSqwoznAVeWzd2Cu7wUwh0vUAwGZBjQp3+xwWnGqmg2e0kKApP9tTF6B6+8EmNQVbKRZ6t+Jv0pJJi39RuLsHPYmml027DbpF6y9r5JLHY04bX9Ch0dhLGIgkKgIibETlUNqPVia9IKuenS4JJU2u2iRAFYxKijHqX72ddqVaikxjw6nBXuzGI60IQ3exbHe4pbcLYn+foG9vobmhieaX7ClCYluEXVQhlTlEuZiMMBGm1VpI289yOt7KU0T5fOqlJzucH/5eakHYnOgfGYCJkcL7noLbotTi4xvEpD9tYaNN6WNy+lURjoFKAGaWDDFXWA4sqWgjuFrc7hokQh6VzMuhxNLk4SMvU7jv/X3ewHM7pTNMwDmwNVsw2Zvwm4XzivnCw9uIJviaqHF3ozT4sAhCyx5XH+bBDPOkJqhQYutE0kiDlVR2yRKXEKd9Axhl5VmYR52izp3aA0C/4B6K6W3G61aIKvhY5JNllQLZUAQI4IehWAYE9SaGsATsMka60MxCC0er1ll3zbS0PQEh7NWqcFut+7wdtZpju+WJhxiNRSJpUtuDSziPNacqKKFvATMW4jJapPmH7p0VX5LXVoJ55cEWGEaKn3EhVuqNVtt2lUIVeILdevh30UDDl07eCVlXbgtDtzSnF18csIM7DrgZI90xiJr8lvr8jagvRfANPVQk16evh7t8K8HZyqQCbEY/g3dYWmI5rds3Nsm+Ge/JwtkEIe2WMIMZM5SOVfORHpktooaFyIWIL6ylv4n4vtd85UNk3V4c8j7vxgyP2O8HgL00tikKj2JhcsYsjd6GodxFWktTMMtWcivO2JFJTTUQuP5/iMh6UT32nzVXguj0IN0VW6erKswVWPImoqR7PdLgT/zs/JchrSWZ1W/LfsgQFISV89FMySY/E+nGeN7/3FtjN99Pz+YVnlWC7I0pMAbV6XOyEJ7cGVPbm1sjsdE/sxF/K3fksURYpLFkqu2WJ4g00tUKwnxCly//M77EYjcT6JWPIdy2L9Und8GMuM9TXKq39Dnb8zL2HztKgGxWoiQVL7S6vgZklvOlJrl12A0xlV+13P86jr+ggkYzMKQvsKwDCe/qNmeYJe//z6AybMaxgxZKwUyeR4DZAadylXek73S6cUw3qnv/E7afS8Jpi2QEJ9mrv/F9TWAeYDMUIH+ZoDJwhrnjlcgE8AI0Iwg0VfEbBCx8R0hwl8lvv/wP/mu/J78lvF7Mh95zxiygb9G6MZmy3cNA8WvXY17eF4NovL8feP1734mT4DpRKgkmXqtr6EeziZSVYqdinNfjC6ShfyuvqTfPa//sPbyO7J+xtrJVdZcnl/dw/O5dBqV/xn79RcBzCAuIUCP8VKNMdSZ37gaD/Q3XI0FE0IzCFsW/U2ils8Z78sCe37+5Ya8x/yN+xtEb/yucfUE2dvm5LnZvwasX3tfrIZy3z8y/9eI/U2CFIAZIFOSU3PhiDFEznsSZiTXvxNg8uzGWstV1tPYZ/mf5zDe99x/+c67rN97SDBDXfmd1/cgwtc28b/wfVkgY/GMq0HYb16N/xvXd1nctz3H2+5t/PabV/ns6+N1p/6bc33zb4OQDDAL8F4SyJvg+I11fn0Or9ZO3n+N8xsAM656vKnMS+bwPhLgbWv4R9972/O8uXbG37Inb37+Xe7//gBTnOo/gEzfgD8ywXd5mN/32VdnEVFtjfOILKhBkMZV3tMW+PXvaJLbkOTvcX2TuHV15Jfz1zQE7Rwlc9WChrUz1Rv3/ZXflLWXZzCeT16r+/zK5385h9cJTH7HAKys02u/JzTheYbxOMcY89DW8425G3P6q67y7Ab96gAy1sfYe7nKezLvl+vl8Z23rdPb3nt3gBmTk5t5Ds8NewP1sqie4+Wkjcn/pVc5Y2mOV3VVDnNNMngurkE8GjHLgd3zO3/wkP6r6rRxppXzrZbz9vrVMBh4mOk9M3lfWu/EiqcbmYx7ecbQee7Vm6/fsheyX8YQohNVU5zbcpV1Uvtp0IWAytMaJ2Zv+dvTKieffct9/pL35N7GHA0G8AYTMsD1knkInXt+5x3m/+4Ak4UxFtMAmPxtDI/NMDbFE1zyWm3I37XAYph5DSxCyK9ULyEgY2gLLFLkzwSYYUgx/FpvXHXjwOvAMsCmO74NH5hxVZ0vxfrpkTavXnv89kuDlNzfY7/efP2WfTH2Ua4GwCTc6hcqpychGqB68yqEKvd8y33+kvfk3p5gkTnrqqzst+feKzqVz3s+1zvO//8H10AUrR07Qy0AAAAASUVORK5CYII=;" vertex="1" parent="1">
          <mxGeometry x="472.63" y="167" width="90" height="40" as="geometry" />
        </mxCell>
        <mxCell id="vNxfv2Wvnp1doIPLiVu--14" value="Diego ..N " style="fillColor=none;strokeColor=#147EBA;verticalAlign=top;fontStyle=0;fontColor=#147EBA;" vertex="1" parent="1">
          <mxGeometry x="251" y="419.5" width="64" height="92" as="geometry" />
        </mxCell>
        <mxCell id="vNxfv2Wvnp1doIPLiVu--18" value="Diego ..N " style="fillColor=none;strokeColor=#147EBA;verticalAlign=top;fontStyle=0;fontColor=#147EBA;" vertex="1" parent="1">
          <mxGeometry x="340" y="420.5" width="64" height="92" as="geometry" />
        </mxCell>
        <mxCell id="vNxfv2Wvnp1doIPLiVu--19" value="&lt;font style=&quot;font-size: 12px;&quot;&gt;App 1&lt;/font&gt;" style="outlineConnect=0;dashed=0;verticalLabelPosition=bottom;verticalAlign=top;align=center;html=1;shape=mxgraph.aws3.android;fillColor=#8CC64F;gradientColor=none;" vertex="1" parent="1">
          <mxGeometry x="264.82" y="450" width="36.37" height="40" as="geometry" />
        </mxCell>
        <mxCell id="vNxfv2Wvnp1doIPLiVu--20" value="App 2" style="outlineConnect=0;dashed=0;verticalLabelPosition=bottom;verticalAlign=top;align=center;html=1;shape=mxgraph.aws3.android;fillColor=#EE472A;gradientColor=none;" vertex="1" parent="1">
          <mxGeometry x="351" y="452" width="33" height="36" as="geometry" />
        </mxCell>
        <mxCell id="vNxfv2Wvnp1doIPLiVu--22" value="&lt;b&gt;10.152.160.116&lt;br&gt;NAT IP&lt;/b&gt;" style="text;html=1;strokeColor=none;fillColor=none;align=center;verticalAlign=middle;whiteSpace=wrap;rounded=0;fontSize=12;" vertex="1" parent="1">
          <mxGeometry x="475" y="362" width="89" height="30" as="geometry" />
        </mxCell>
        <mxCell id="vNxfv2Wvnp1doIPLiVu--23" value="" style="sketch=0;html=1;aspect=fixed;strokeColor=none;shadow=0;align=center;verticalAlign=top;fillColor=#3B8DF1;shape=mxgraph.gcp2.website;fontSize=12;" vertex="1" parent="1">
          <mxGeometry x="661" y="366" width="100" height="97" as="geometry" />
        </mxCell>
        <mxCell id="vNxfv2Wvnp1doIPLiVu--24" value="NGINX Server" style="fillColor=none;dashed=1;verticalAlign=top;fontStyle=1;fontColor=#5A6C86;strokeColor=#FF8000;fontSize=14;" vertex="1" parent="1">
          <mxGeometry x="613" y="304" width="198" height="193" as="geometry" />
        </mxCell>
        <mxCell id="vNxfv2Wvnp1doIPLiVu--25" value="&quot;GET /en-in/gneralerror source=10.152.160.116" style="text;html=1;strokeColor=none;fillColor=none;align=center;verticalAlign=middle;whiteSpace=wrap;rounded=0;fontSize=12;" vertex="1" parent="1">
          <mxGeometry x="624" y="522" width="188" height="96" as="geometry" />
        </mxCell>
        <mxCell id="vNxfv2Wvnp1doIPLiVu--26" value="Logs" style="text;html=1;strokeColor=none;fillColor=none;align=center;verticalAlign=middle;whiteSpace=wrap;rounded=0;fontSize=12;" vertex="1" parent="1">
          <mxGeometry x="681" y="524" width="60" height="30" as="geometry" />
        </mxCell>
      </root>
    </mxGraphModel>
  </diagram>
</mxfile>
